<svg width="16" height="16" viewBox="0 0 16 16" fill="none" xmlns="http://www.w3.org/2000/svg">
<path d="M12.667 2.66666H3.33366C2.96547 2.66666 2.66699 2.96513 2.66699 3.33332V4.39051C2.66699 4.56733 2.73723 4.73689 2.86225 4.86192L6.47173 8.47139C6.59675 8.59642 6.66699 8.76599 6.66699 8.9428V12.9213C6.66699 13.4169 7.18853 13.7392 7.6318 13.5176L8.96513 12.8509C9.19099 12.738 9.33366 12.5071 9.33366 12.2546V8.9428C9.33366 8.76599 9.4039 8.59642 9.52892 8.4714L13.1384 4.86192C13.2634 4.73689 13.3337 4.56733 13.3337 4.39051V3.33332C13.3337 2.96513 13.0352 2.66666 12.667 2.66666Z" stroke="#001530" stroke-width="1.5" stroke-linecap="round" stroke-linejoin="round"/>
</svg>
