<svg width="20" height="21" viewBox="0 0 20 21" fill="none" xmlns="http://www.w3.org/2000/svg">
<path d="M15.8332 9.13636C15.8332 13.9091 9.99984 18 9.99984 18C9.99984 18 4.1665 13.9091 4.1665 9.13636C4.1665 7.5089 4.78109 5.94809 5.87505 4.7973C6.96901 3.64651 8.45274 3 9.99984 3C11.5469 3 13.0307 3.64651 14.1246 4.7973C15.2186 5.94809 15.8332 7.5089 15.8332 9.13636Z" stroke="white" stroke-width="1.5" stroke-linecap="round" stroke-linejoin="round"/>
<path d="M10 11.3335C11.3807 11.3335 12.5 10.2142 12.5 8.8335C12.5 7.45278 11.3807 6.3335 10 6.3335C8.61929 6.3335 7.5 7.45278 7.5 8.8335C7.5 10.2142 8.61929 11.3335 10 11.3335Z" stroke="white" stroke-width="1.5" stroke-linecap="round" stroke-linejoin="round"/>
</svg>
