<svg width="24" height="25" viewBox="0 0 24 25" fill="none" xmlns="http://www.w3.org/2000/svg">
<path d="M19 10.8636C19 16.5909 12 21.5 12 21.5C12 21.5 5 16.5909 5 10.8636C5 8.91068 5.7375 7.03771 7.05025 5.65676C8.36301 4.27581 10.1435 3.5 12 3.5C13.8565 3.5 15.637 4.27581 16.9497 5.65676C18.2625 7.03771 19 8.91068 19 10.8636Z" stroke="#E95128" stroke-width="1.5" stroke-linecap="round" stroke-linejoin="round"/>
<path d="M12 13.5C13.6569 13.5 15 12.1569 15 10.5C15 8.84315 13.6569 7.5 12 7.5C10.3431 7.5 9 8.84315 9 10.5C9 12.1569 10.3431 13.5 12 13.5Z" stroke="#E95128" stroke-width="1.5" stroke-linecap="round" stroke-linejoin="round"/>
</svg>
