<svg width="50" height="43" viewBox="0 0 50 43" fill="none" xmlns="http://www.w3.org/2000/svg">
<g style="mix-blend-mode:difference" clip-path="url(#clip0_319_2215)">
<path fill-rule="evenodd" clip-rule="evenodd" d="M3.51111 5.84392C3.53785 4.78136 4.06605 4.43166 4.9954 3.99453C5.7576 3.6381 6.37271 3.49688 7.23521 3.29513C8.8599 2.90507 11.5009 3.67173 11.8151 4.56616C11.2669 5.42697 11.2602 4.90241 10.3776 5.24539C9.99652 5.39334 9.60205 5.77667 9.241 6.01205C7.87706 6.89303 6.2858 6.20035 6.21894 6.2138C5.55702 6.36175 5.09569 7.95559 4.29337 8.37254C4.15297 8.17079 3.83204 8.56757 4.16634 7.47138C4.30006 7.04771 4.9954 6.63748 4.92185 5.49422C4.19977 5.44042 4.0861 5.66234 3.51111 5.84392ZM46.4887 5.84392C46.4619 4.78136 45.9337 4.43166 45.0044 3.99453C44.2422 3.6381 43.6271 3.49688 42.7646 3.29513C41.1399 2.90507 38.4989 3.67173 38.1847 4.56616C38.7329 5.42697 38.7396 4.90241 39.6221 5.24539C40.0033 5.39334 40.3977 5.77667 40.7588 6.01205C42.1227 6.89303 43.714 6.20035 43.7808 6.2138C44.4427 6.36175 44.9041 7.95559 45.7064 8.37254C45.8468 8.17079 46.1677 8.56757 45.8334 7.47138C45.6997 7.04771 45.0044 6.63748 45.0779 5.49422C45.8 5.44042 45.9204 5.66234 46.4887 5.84392ZM34.1129 17.949C36.9478 19.4218 34.7681 23.5644 32.0803 21.9706C29.1385 20.2288 31.6324 16.6645 34.1129 17.949ZM27.5941 25.3735C28.0019 25.6627 28.3897 26.0931 28.5301 26.7387C28.9714 27.929 28.7106 29.3816 27.2263 30.6257L27.0324 30.7804C27.1193 31.231 27.7545 31.8094 28.0487 31.9977C30.1481 33.3763 32.2742 32.5222 32.8024 33.0535C33.3507 33.5982 32.2609 34.4792 31.8062 34.7213C30.3219 35.5149 27.3801 34.5465 26.0295 33.4906C25.3609 32.9661 25.2272 32.4213 25.0066 31.9573C24.7859 32.4146 24.6522 32.9661 23.9836 33.4906C22.6264 34.5465 19.6912 35.5149 18.2069 34.7213C17.7523 34.4792 16.6625 33.5982 17.2107 33.0535C17.7456 32.5222 19.8717 33.383 21.9644 31.9977C22.2519 31.8094 22.8871 31.231 22.9807 30.7804L22.7868 30.6257C21.3025 29.3816 21.0418 27.9223 21.4831 26.7387C21.6235 26.0863 22.0046 25.6559 22.4191 25.3735C23.1077 24.7548 24.0371 24.3849 25.0133 24.4387C25.9894 24.3849 26.9188 24.7548 27.6074 25.3735H27.5941ZM31.258 39.3683C31.8931 39.2742 33.5178 38.4403 34.1062 38.104C36.2457 36.8733 35.2495 36.6447 34.8484 35.8646C36.0919 35.9318 36.1254 36.9137 37.3289 35.7233C38.4387 34.6272 37.4559 34.7684 37.135 33.7596C38.285 33.8403 38.0175 34.5465 38.9268 33.995C39.6623 32.845 38.198 32.9324 38.0509 31.5202C39.3614 31.7488 39.0672 32.4751 40.1102 32.5289C40.7187 32.0313 40.4846 31.695 40.0501 31.1974C39.5419 30.619 39.1942 30.5316 39.1408 29.469C40.6919 29.7246 39.7692 30.4576 41.4474 30.5787C41.2402 29.7649 41.2736 29.8456 40.7989 29.2202C40.3643 28.6553 40.3777 28.5746 39.816 28.3123C39.5419 27.586 39.4149 27.9761 39.3347 26.6647C41.3672 26.7656 41.1332 28.4267 42.3567 28.467C42.1093 26.7588 39.5285 25.2928 39.5419 23.5241C41.287 23.8267 42.0625 26.6109 42.9852 26.8261C43.1122 25.7972 43.1122 25.9249 42.7311 25.2659C42.4436 23.7326 41.18 23.5846 41.0396 21.8899L41.9422 22.6297C42.0826 22.7911 42.2965 23.0332 42.4971 23.282C42.8849 23.7595 42.9718 24.479 43.6672 24.5127C43.8945 22.818 43.1657 22.2665 42.2832 20.8677C41.755 20.0338 41.8352 20.1347 41.3405 19.8926C40.8323 18.9174 40.0434 18.4399 39.9431 17.0546C40.8657 17.2967 41.287 18.0701 41.7884 18.7224C42.0893 19.1192 42.2497 19.3344 42.5239 19.7312C42.8916 20.2692 42.8916 20.4373 43.4733 20.6323C43.4064 18.8233 41.6881 18.2718 41.5611 16.5771C42.1695 16.799 42.4035 17.1689 42.9518 17.4581C42.9183 14.8689 38.071 7.84126 35.6039 5.93135C29.2522 1.01533 20.7677 1.00188 14.3892 5.93135C11.9288 7.83454 7.08143 14.8622 7.04131 17.4581C7.59625 17.1689 7.82357 16.799 8.432 16.5771C8.30497 18.2651 6.58667 18.8233 6.51981 20.6323C7.10149 20.4373 7.10149 20.2692 7.46922 19.7312C7.74334 19.3344 7.90381 19.1125 8.20468 18.7224C8.70613 18.0701 9.12734 17.3034 10.05 17.0546C9.95641 18.4399 9.16077 18.9174 8.65264 19.8926C8.15787 20.1347 8.23811 20.0338 7.70991 20.8677C6.82736 22.2665 6.09859 22.818 6.32591 24.5127C7.02126 24.4858 7.11486 23.7595 7.49596 23.282C7.69654 23.0332 7.90381 22.7911 8.0509 22.6297L8.95351 21.8899C8.8131 23.5846 7.54945 23.7326 7.26195 25.2659C6.88085 25.9249 6.88085 25.7972 7.00788 26.8261C7.93055 26.6109 8.70613 23.8267 10.4512 23.5241C10.4712 25.2928 7.88375 26.7656 7.63637 28.467C8.8599 28.4334 8.62589 26.7723 10.6584 26.6647C10.5715 27.9761 10.4445 27.586 10.177 28.3123C9.61542 28.5746 9.62879 28.6553 9.1942 29.2202C8.7195 29.8389 8.75293 29.7649 8.54566 30.5787C10.2238 30.4576 9.30118 29.7246 10.8523 29.469C10.7988 30.5249 10.4512 30.619 9.94303 31.1974C9.50844 31.6883 9.27443 32.0313 9.88286 32.5289C10.9259 32.4751 10.625 31.7488 11.9421 31.5202C11.7951 32.9392 10.3375 32.845 11.0663 33.995C11.9756 34.5465 11.7081 33.8403 12.8581 33.7596C12.5372 34.7684 11.5544 34.6272 12.6642 35.7233C13.8677 36.9137 13.9011 35.9318 15.1447 35.8646C14.7436 36.6447 13.7474 36.8733 15.8869 38.104C16.4752 38.4403 18.0999 39.2809 18.7351 39.3683C19.7514 39.8189 20.6272 40.2493 22.0246 40.7537C23.081 41.137 24.5185 41.7826 24.7792 42.7443C16.2145 43.5311 9.92298 38.4672 7.31544 34.9567C3.99919 30.4912 2.20066 25.7165 2.94949 19.9867C3.11664 18.7426 3.06315 18.097 3.31722 16.9873C3.54454 16.0324 3.93233 15.333 4.00587 14.3444C2.20734 13.228 1.41171 10.881 0.582646 8.82312C-0.460369 6.22725 -0.112697 4.18283 1.59223 2.37379C4.01925 -0.195178 10.4579 -1.44604 14.0482 2.62934C18.1133 1.64749 22.4458 -1.69487 35.9382 2.62934C39.5285 -1.45276 45.9672 -0.195178 48.3942 2.37379C50.0991 4.17611 50.4468 6.22052 49.4038 8.82312C48.5814 10.881 47.7857 13.228 45.9805 14.3444C46.0541 15.333 46.4419 16.0324 46.6692 16.9873C46.9299 18.0902 46.8764 18.7359 47.0369 19.9867C47.4715 23.2753 46.7494 28.3729 45.2518 30.8544C43.968 32.9862 44.4427 32.5693 42.671 34.9567C40.966 37.9964 31.833 44.3516 25.2072 42.7443C25.4679 41.7826 26.9054 41.1303 27.9618 40.7537C29.3592 40.2493 30.235 39.8189 31.2513 39.3683H31.258ZM15.8869 17.949C13.052 19.4218 15.2317 23.5644 17.9194 21.9706C20.8613 20.2288 18.3674 16.6645 15.8869 17.949Z" fill="white"/>
</g>
<defs>
<clipPath id="clip0_319_2215">
<rect width="50" height="43" fill="white"/>
</clipPath>
</defs>
</svg>
