<svg width="24" height="25" viewBox="0 0 24 25" fill="none" xmlns="http://www.w3.org/2000/svg">
<path d="M14 16.5C14 16.5 15.5044 17 16.5 17C17.4956 17 19 16.5 19 16.5C19 16.5 18.5 18.0044 18.5 19C18.5 19.9956 19 21.5 19 21.5" stroke="white" stroke-width="1.5" stroke-linecap="round" stroke-linejoin="round"/>
<path d="M4.58252 15.4968C5.1432 16.8846 6.08195 18.0872 7.29206 18.968C8.50217 19.8488 9.93511 20.3725 11.428 20.4795C12.9209 20.5865 14.4139 20.2726 15.7373 19.5734C17.0606 18.8742 18.1613 17.8177 18.9142 16.5241" stroke="white" stroke-width="1.5" stroke-linecap="round" stroke-linejoin="round"/>
<path d="M10 8.5C10 8.5 8.49565 8 7.5 8C6.50435 8 5 8.5 5 8.5C5 8.5 5.5 6.99565 5.5 6C5.5 5.00435 5 3.5 5 3.5" stroke="white" stroke-width="1.5" stroke-linecap="round" stroke-linejoin="round"/>
<path d="M19.4176 9.50315C18.8569 8.11541 17.9182 6.91278 16.7081 6.03197C15.498 5.15116 14.065 4.62749 12.5721 4.52048C11.0792 4.41346 9.58624 4.7274 8.26287 5.42661C6.9395 6.12582 5.83882 7.18226 5.08594 8.47584" stroke="white" stroke-width="1.5" stroke-linecap="round" stroke-linejoin="round"/>
</svg>
