<svg width="52" height="52" viewBox="0 0 52 52" fill="none" xmlns="http://www.w3.org/2000/svg">
<g style="mix-blend-mode:difference" clip-path="url(#clip0_319_2218)">
<path fill-rule="evenodd" clip-rule="evenodd" d="M22.6281 12.4492C23.0217 13.1097 24.1079 12.9102 25.0287 12.7962C26.0021 12.6749 26.9976 12.8869 27.4783 12.242C27.1887 11.2501 24.4632 11.8515 23.663 11.9506C23.0623 12.0246 22.8933 12.0521 22.6281 12.4492ZM40.5325 41.4526C40.6334 40.825 40.7505 40.527 41.0687 40.0116L41.1518 39.8826C41.9956 40.2344 41.986 40.8274 43.2233 40.8274C43.7901 40.8274 44.0391 40.5061 44.4661 40.4129C44.9826 40.9593 45.7094 44.6224 45.7094 45.1772C45.7094 46.7919 45.6926 45.9553 45.5607 46.8916L45.449 45.4913C45.16 45.7678 44.8632 47.035 44.7318 47.4088L44.1555 48.6975C43.9895 48.9781 44.0653 48.9172 43.8271 49.1137C43.1356 47.7462 44.7933 48.5852 44.5294 44.7974L44.1275 45.3145L43.6013 42.8637L41.9812 46.6474C41.5901 46.3494 41.6181 46.3076 41.851 45.883C42.2541 45.1485 42.8429 44.1058 42.874 43.2483C42.5258 43.3635 42.6578 43.5427 42.2529 43.8431C42.3067 43.2877 42.3353 42.9037 42.1741 42.3806C42.0362 42.3484 42.3019 42.2749 41.8439 42.6057L41.9615 41.9053C41.2264 42.546 41.2383 43.1826 40.7451 43.7213C40.5492 42.5944 40.6161 43.3761 40.9577 42.082C41.0544 41.7171 41.1315 41.3123 41.2037 40.8327C40.8257 41.0226 40.8227 41.16 40.5331 41.452L40.5325 41.4526ZM27.8116 15.0386C28.2576 15.4912 30.3692 14.8809 31.2107 14.8134C30.4099 15.9928 28.2965 15.1681 26.499 16.7471C26.1819 17.0259 25.2073 17.3436 25.3429 17.8023C25.4987 18.329 26.3455 17.9253 26.8848 17.8596C29.0334 17.5992 30.0008 19.0844 32.4546 19.0814C36.1767 19.076 36.0621 14.7322 34.8456 13.8884C33.3862 12.8768 28.0516 14.3829 27.8122 15.0391L27.8116 15.0386ZM29.7195 39.5841L32.1387 37.7203C34.1905 36.2751 35.2033 36.4764 37.4236 36.477C37.9832 36.477 39.285 36.7015 39.6976 36.9941C39.7144 37.4151 39.6158 37.8236 39.7 38.2249C39.786 38.634 39.9921 38.6943 40.1611 39.1057C39.5872 39.295 39.0414 39.8098 38.5284 40.1729C37.5849 40.8405 37.4911 40.6512 36.1797 40.6195C36.3822 40.2607 36.5947 40.1711 36.799 39.6933C35.2487 39.6659 35.2983 40.226 34.7178 40.2839C34.522 40.3036 33.2255 39.8749 33.0022 39.7596C34.012 38.9421 35.4858 38.6101 36.5715 37.743C33.6477 37.5376 32.4611 39.264 31.7021 39.4539C31.4627 39.5142 30.039 39.5811 29.7195 39.5841ZM39.205 31.7169C39.7801 30.6623 40.7606 29.1682 40.7194 27.6502C41.0001 27.8867 41.3446 28.6618 41.4683 29.0076C41.6683 29.5713 41.6468 30.0478 41.7501 30.6719C41.175 31.1831 40.0512 31.7999 39.205 31.7169ZM26.4637 25.7058C26.3186 27.354 25.1786 30.187 23.2223 31.0917C23.5866 30.3034 24.2912 29.5982 24.7087 28.7418C25.098 27.9446 25.4277 26.8978 25.5154 25.8312L26.4643 25.7064L26.4637 25.7058ZM22.5953 5.09685C22.7153 4.16348 23.2725 3.72575 23.2217 2.62278C21.847 2.71295 21.8375 5.12671 21.3764 5.81883C22.1193 6.12399 23.5908 6.15265 24.5821 6.15862C25.9914 6.16758 26.5479 6.54798 27.6718 6.66801C30.6941 6.99048 30.377 6.74146 33.5605 7.92744C38.474 9.75777 43.4347 12.208 45.9924 17.0307C48.1136 21.0312 48.4826 24.4571 48.0849 29.0106C47.9864 30.1392 47.7445 31.0606 47.5421 32.0967C47.3976 32.8348 47.1665 34.329 46.7389 34.9679C46.9371 32.513 47.2542 30.559 47.1575 27.9828C47.1133 26.8034 46.844 25.7852 46.5788 24.7318C46.4373 24.1729 46.4349 23.7119 46.2815 23.1696C45.3146 19.7592 43.421 17.3096 40.6328 15.3473C39.8786 14.8164 39.2241 14.095 38.2591 13.9045C38.2471 15.0547 41.2802 16.8056 42.7181 18.753C43.5022 19.8147 44.1836 21.1793 44.6506 22.5151C45.2065 24.1042 45.7332 27.1641 45.8175 28.9162C45.8999 30.6331 46.211 32.3607 46.2456 34.0943C46.251 34.3725 46.2265 34.7512 46.2629 35.0121C46.3125 35.365 46.4266 35.3185 46.6601 35.4409C46.3758 36.7785 45.5672 37.9801 44.7736 38.9612L44.0528 40.1245C43.1547 40.0821 42.5223 39.7572 42.0816 39.2723C42.9379 38.001 43.4646 37.8594 44.1472 36.0494C44.8877 34.0853 45.4006 33.0426 45.3988 30.9866C45.3964 28.4976 44.7664 25.3081 43.3541 23.3971C42.4464 22.1694 41.2336 20.9255 39.7753 20.4501C38.8013 20.1318 38.6341 19.8619 37.3418 19.6786C35.573 19.4278 33.3766 20.2154 31.5218 20.2154H26.3437C25.5053 20.2154 24.1204 18.6013 23.8523 17.9438C23.1739 16.2789 24.0619 14.6026 20.6222 11.6448C20.0686 11.1695 18.642 9.69746 17.7534 9.96797C17.834 10.469 18.5393 10.8966 18.8803 11.317C19.2284 11.7469 19.7205 12.2527 20.1122 12.6702C20.9519 13.5659 21.7377 14.5716 22.0823 15.7808C22.3976 16.8874 22.7302 19.0886 22.4657 20.3796C22.2155 21.6003 21.5299 23.129 20.6807 23.6056C20.8909 23.0854 21.7957 20.0375 21.3729 19.5078C21.2122 19.706 20.3851 22.9564 19.5593 24.3072C19.3252 24.6894 18.5859 25.0818 18.144 25.1922C18.3357 24.3765 19.1645 23.1332 19.6196 22.3921C19.8346 22.0416 20.0895 21.8869 20.117 21.4701C18.928 21.6654 17.6925 25.3857 17.1252 25.8079C16.78 26.0647 15.8174 26.4529 15.3158 26.5323C15.5075 26.1358 16.0682 25.4305 16.3656 24.9426C16.6618 24.4577 17.3533 23.7041 16.9192 23.3231L15.3134 25.8593C14.5747 26.9461 14.085 26.976 12.4762 27.2686C10.2756 27.6687 7.18708 27.5761 5.08922 26.7682C5.2612 26.469 5.06832 26.672 5.37287 26.4762C5.46245 26.4188 5.6834 26.3406 5.81299 26.2958C6.20294 26.1609 6.31282 26.1358 6.72427 26.0719C7.53523 25.9447 7.99087 25.9208 8.64597 25.6109C10.2219 24.8668 11.8277 24.2189 12.9026 22.8274C13.5983 21.9269 13.28 22.3127 14.3513 21.8929C15.0023 21.6379 16.8714 20.2901 16.3996 19.386C15.8699 19.0856 15.7965 19.4475 15.5379 19.7658C15.3271 20.0255 15.0172 20.2626 14.7467 20.4214C13.9805 20.8717 13.412 20.9398 12.2594 20.9398C11.0388 20.9398 8.56236 21.792 7.41818 22.2058C6.50212 22.5372 3.36101 23.4252 2.42106 23.4252C2.0759 23.4252 1.88301 23.2479 1.69968 23.1117C1.66803 21.0318 2.82714 19.6272 3.93847 18.1056C5.53471 15.9206 7.1829 14.2754 9.23299 12.5274C10.8047 11.1868 12.6016 10.2033 14.3472 8.94383C14.7759 8.63449 17.3557 7.29623 17.9791 7.21382C18.3661 7.16306 18.3721 7.36969 18.734 7.01974L19.4542 6.58918C19.8214 6.47094 19.9152 6.35748 20.0961 6.14071C19.8549 5.97708 19.3968 5.96932 18.9913 5.94125C19.487 4.51282 19.5043 4.15452 20.7094 3.19069C21.1346 2.8503 21.4971 2.5541 21.976 2.27821C24.637 0.746466 26.189 1.31199 28.2845 3.04975C28.7252 3.41582 29.3033 3.57705 29.6383 3.92222C29.0292 3.99746 28.4237 3.91744 27.8134 3.97955C27.2323 4.03867 26.6196 4.16228 26.0344 4.16288C26.2607 3.58661 26.4506 3.11723 26.4434 2.40779C25.6856 2.51529 25.3417 3.51017 24.9451 4.10854C24.5886 4.64659 23.2707 4.8753 22.5983 5.09566L22.5953 5.09685ZM18.1601 3.96283L17.6417 6.02844C16.9245 6.08756 15.6036 6.70563 14.8571 6.97197C13.0638 7.61333 11.6115 8.68167 10.0404 9.71537L7.87442 11.3815C6.45853 12.5722 4.22272 14.6838 3.17051 16.1027C2.66471 16.7847 0.972921 18.9882 0.870208 19.4922C0.578191 20.6376 -0.382656 21.5519 0.167935 23.2914C0.367987 23.9239 0.625965 24.3425 1.28464 24.5592C1.77313 24.7199 3.05167 24.7444 3.11736 24.7736C3.62496 24.7635 6.82997 23.8904 7.58241 23.6211C8.67105 23.2311 10.7193 22.419 11.9459 22.3921C11.5512 22.9815 10.1431 23.86 9.38646 24.1824C6.49197 25.4174 8.34559 24.6136 5.93541 25.1845C2.84625 25.916 3.26964 27.9159 7.08436 28.703C7.7311 28.8362 8.27453 28.8607 9.00248 28.9598C11.3965 29.2858 12.1932 29.0094 14.721 28.3776C16.9986 27.8078 17.4901 27.4609 19.3694 26.3973C20.1588 25.9512 20.1236 26.0169 21.2666 26.0169C21.3866 27.4579 21.5138 28.0222 20.7154 29.6083C20.4317 30.172 20.2657 30.5047 19.9379 31.0051C19.5181 31.6447 19.6094 31.9749 19.6094 32.9555C20.0925 33.2791 19.9952 33.3675 20.8486 33.3759C22.8759 33.3962 23.2778 32.6987 24.5194 31.9624C25.0688 31.6357 25.0365 31.7283 25.4874 31.2738C26.3951 30.3584 27.0054 29.2608 27.2657 27.9768C27.9316 24.6954 26.2088 25.8879 30.9748 24.9534C32.3423 24.6852 34.8206 24.3795 36.3875 24.4619C36.8503 24.4864 36.7649 24.5569 37.2152 24.5646C38.0303 25.3087 37.7676 28.3602 37.5132 29.5265C37.3502 30.2777 37.1232 31.2619 37.5311 31.911C38.0286 32.7023 39.2229 32.9262 39.2241 32.9244C39.2372 32.9011 39.2772 32.9411 39.3005 32.9549C40.7731 32.9549 40.6884 32.458 41.6683 32.2299C41.6683 32.8593 41.0108 34.7529 40.7869 35.2838C40.6358 35.6409 40.4029 35.7866 40.2184 36.0619C39.3149 35.5836 37.2062 35.3471 36.08 35.3328C33.2398 35.2964 31.2602 36.6322 29.2549 38.2512C28.1525 39.141 28.2959 39.4545 27.2126 39.8349C26.453 40.1018 26.5724 40.699 27.289 40.8094C28.5849 41.0089 28.0749 40.4105 29.6532 41.2412C30.8315 41.8617 30.9849 41.7769 32.0987 42.5245C33.5253 43.4818 36.1893 44.6212 37.8369 43.5188C37.8369 44.5633 38.0017 45.0326 38.2364 45.8119C38.7565 47.5366 40.0876 48.409 41.5244 49.3591C42.0911 49.7342 42.0063 49.8363 42.3939 49.9396C42.757 50.139 42.7492 50.1211 43.0161 50.4567C43.4598 51.0139 43.2556 51.1268 43.4789 51.2366C44.0803 51.3059 44.4804 50.692 44.8793 50.4454C45.4227 50.1241 46.2074 49.1878 46.4481 48.5052C47.2966 46.0998 47.2435 45.0953 46.5167 42.3997C46.2695 41.4843 45.4496 39.9889 45.5009 39.7901C45.7267 39.4527 45.9464 39.3326 46.208 38.9433C46.7622 38.1162 47.6938 36.7875 47.7798 35.7514C48.3465 35.9025 49.3061 37.5758 50.6444 36.6484C50.9878 36.4101 51.0833 36.1444 51.094 35.6147C51.069 35.5776 50.771 32.9991 50.6515 32.5661C50.3715 31.5521 50.1153 30.7752 49.8048 29.8968C49.3402 24.1484 51.6811 13.2733 37.0086 7.99552L36.7345 7.93461C36.7213 7.90296 36.6921 7.89818 36.6694 7.88265C36.6342 7.46105 36.7405 7.09857 36.5756 6.46079C36.4102 5.82003 36.2096 5.91438 35.9498 5.40619C35.0994 3.78069 32.2312 3.66782 30.463 2.63114C29.4024 2.00948 29.8903 2.49498 28.9551 1.65357C28.5735 1.31019 27.8755 0.750049 27.3774 0.647932C26.0445 0.398315 25.3566 -0.770348 21.8602 0.81932C21.2134 1.11313 20.3505 1.70194 19.7987 2.17609C18.6247 3.18531 18.7453 3.36386 18.1601 3.96223V3.96283ZM13.4138 14.5925C9.60741 15.1837 10.6393 18.7482 11.5387 17.7515C11.9638 17.2803 11.5124 16.8092 12.4284 16.249C14.6929 14.8654 14.8052 17.5359 15.7433 16.5613C16.4193 15.8585 14.7305 14.3876 13.4144 14.5925H13.4138Z" fill="white"/>
</g>
<defs>
<clipPath id="clip0_319_2218">
<rect width="51.0947" height="51.2432" fill="white"/>
</clipPath>
</defs>
</svg>
