<svg width="43" height="44" viewBox="0 0 43 44" fill="none" xmlns="http://www.w3.org/2000/svg">
<g style="mix-blend-mode:difference" clip-path="url(#clip0_319_2221)">
<path fill-rule="evenodd" clip-rule="evenodd" d="M33.8609 27.0205C31.8694 31.5302 26.5672 35.2934 21.5769 35.2269C15.1959 35.3138 9.01424 29.7483 8.37 23.4082C8.07344 20.4784 8.69212 17.1524 10.4075 14.7212C12.8413 11.2648 17.2053 8.5242 21.5104 8.583C25.8565 8.5242 30.2716 11.321 32.6926 14.8337C34.9346 18.0881 35.4562 23.4031 33.8584 27.0205H33.8609ZM0.368135 12.947C0.905001 12.5277 1.43675 12.6095 2.06054 12.7373L2.11678 12.7501C3.86288 13.2384 5.6192 13.6909 7.33206 14.2866L7.37552 14.3019C8.21661 14.6521 8.66144 15.5086 8.18849 16.342C7.74365 17.1294 6.92301 17.0655 6.1893 16.8226C4.92638 16.4545 1.21178 15.5955 0.391144 14.7442C0.0536848 14.3939 -0.0230104 14.1127 0.00766771 13.6347L0.0332328 13.2103L0.368135 12.947ZM19.9024 6.45599C19.9024 4.83516 19.7746 3.20667 19.9663 1.59096C20.0788 0.634826 20.6463 -0.372437 21.7661 0.141421C22.4461 0.453314 22.4666 1.17169 22.5688 1.80059C22.7094 2.67747 22.6839 3.7103 22.6685 4.60252C22.6532 5.5382 22.6992 7.60897 21.4644 7.80838C20.677 7.93621 20.0149 7.34565 19.9126 6.58126L19.9049 6.51735V6.45343L19.9024 6.45599ZM9.00912 4.62297C9.82465 4.3571 10.3078 4.8096 10.7373 5.43339C11.627 6.72698 12.803 7.79815 13.6824 9.10709C14.2142 9.8996 14.0557 11.0858 12.9794 11.2776C11.9593 11.4591 10.3538 9.41642 9.76329 8.68782C9.07304 7.83395 7.05595 5.25954 9.00657 4.62553L9.00912 4.62297ZM32.6491 4.64087C33.8123 4.20371 34.6662 5.37203 34.2725 6.44065C33.9887 7.21272 30.9542 10.9401 30.2383 11.2111C29.0572 11.661 28.1829 10.4467 28.661 9.38063C28.9473 8.74406 29.7015 7.92087 30.1616 7.37122C30.6704 6.76277 31.2149 6.17477 31.6828 5.53309C31.9742 5.13428 32.1557 4.82494 32.6491 4.64087ZM42.4533 13.4685C42.6169 14.2815 42.1568 14.8899 41.4231 15.1865C39.7971 15.8435 37.936 16.48 36.2231 16.8226C35.5303 16.9786 35.088 17.1984 34.4898 16.5798C33.7766 15.8409 34.1933 14.8004 35.0113 14.3581C35.9751 13.8417 40.876 12.4382 41.8219 12.7527L42.3434 12.9265L42.4508 13.4659L42.4533 13.4685ZM0.0690238 30.1778C0.0383458 29.6997 0.115041 29.4185 0.4525 29.0657C1.27314 28.217 4.9903 27.3554 6.25065 26.9873C6.98437 26.7419 7.80245 26.6779 8.24984 27.4654C8.7228 28.2988 8.27796 29.1578 7.43432 29.508L7.39341 29.5233C5.68567 30.1318 3.92679 30.5715 2.18581 31.0598L2.14746 31.07L2.11423 31.0751C1.50322 31.203 0.968914 31.2848 0.432048 30.8629L0.0971454 30.6022L0.0690238 30.1778ZM19.9765 37.2312C20.0813 36.4668 20.7435 35.8763 21.5309 36.0041C22.7657 36.2035 22.7171 38.2717 22.735 39.2099C22.7503 40.1022 22.7785 41.135 22.6353 42.0119C22.533 42.6408 22.5126 43.3591 21.8326 43.671C20.7128 44.1823 20.1453 43.1802 20.0328 42.2215C19.841 40.6058 19.9689 38.9773 19.9689 37.3565V37.2951L19.9765 37.2312ZM9.07559 39.1895C7.12498 38.5529 9.14206 35.9785 9.83232 35.1246C10.4229 34.396 12.0258 32.3534 13.0484 32.5349C14.1221 32.7266 14.2806 33.9129 13.7489 34.7028C12.872 36.0118 11.696 37.0829 10.8038 38.3765C10.3743 39.0003 9.89112 39.4528 9.07559 39.1869V39.1895ZM32.7156 39.1741C32.2196 38.9875 32.0407 38.6807 31.7492 38.2819C31.284 37.6402 30.7369 37.0522 30.2281 36.4438C29.7679 35.8942 29.0138 35.071 28.7275 34.4344C28.2494 33.3683 29.1237 32.154 30.3048 32.6039C31.0206 32.8775 34.0552 36.6049 34.339 37.3744C34.7327 38.4404 33.8763 39.6088 32.7156 39.1741ZM41.8909 31.0572C40.945 31.3717 36.0416 29.9682 35.0804 29.4518C34.2623 29.012 33.843 27.9715 34.5563 27.2327C35.1519 26.614 35.5993 26.8313 36.2922 26.9898C38.005 27.335 39.8661 27.969 41.4921 28.626C42.2258 28.9226 42.686 29.531 42.5224 30.3465L42.4124 30.8834L41.8935 31.0572H41.8909ZM13.2248 15.6978C11.8111 17.6944 10.9879 20.031 11.1438 22.5032C11.333 25.5096 12.9206 28.1658 15.2802 29.9912C17.0749 31.3819 19.2939 32.3202 21.5743 32.3738C24.0414 32.3176 26.401 31.1595 28.3082 29.6409C31.6444 26.9847 32.644 22.4111 31.2175 18.469C29.7833 14.5013 25.7261 11.5434 21.5079 11.4463C18.3276 11.523 15.2598 13.3534 13.2248 15.7003V15.6978Z" fill="white"/>
</g>
<defs>
<clipPath id="clip0_319_2221">
<rect width="42.5556" height="43.8047" fill="white"/>
</clipPath>
</defs>
</svg>
