<svg width="23" height="14" viewBox="0 0 23 14" fill="none" xmlns="http://www.w3.org/2000/svg">
<path d="M19.0859 7.95459C18.7141 7.49956 18.8204 7.29716 19.0859 6.89044C19.0907 6.88576 22.1603 2.77591 22.4766 1.38211L22.4785 1.38118C22.6356 0.873286 22.4785 0.5 21.7185 0.5H19.2037C18.5636 0.5 18.2684 0.820335 18.1102 1.17878C18.1102 1.17878 16.8299 4.14836 15.0186 6.07327C14.434 6.62948 14.1637 6.80776 13.8446 6.80776C13.6874 6.80776 13.443 6.62948 13.443 6.12158V1.38118C13.443 0.772064 13.2638 0.5 12.7338 0.5H8.77959C8.37804 0.5 8.13939 0.784143 8.13939 1.04876C8.13939 1.62632 9.04507 1.75915 9.139 3.38413V6.90992C9.139 7.68248 8.99428 7.82457 8.67324 7.82457C7.81834 7.82457 5.74348 4.84292 4.51391 1.43043C4.26569 0.76832 4.02322 0.500891 3.37824 0.500891H0.86253C0.144713 0.500891 0 0.821271 0 1.17972C0 1.81299 0.854862 4.96179 3.97531 9.12178C6.05496 11.9613 8.98375 13.5 11.648 13.5C13.2494 13.5 13.4449 13.1583 13.4449 12.5705C13.4449 9.85721 13.3002 9.60093 14.1023 9.60093C14.4742 9.60093 15.1144 9.77921 16.6094 11.1489C18.3182 12.7729 18.599 13.5 19.5555 13.5H22.0702C22.7871 13.5 23.1503 13.1583 22.9414 12.4842C22.4631 11.0662 19.2316 8.14959 19.0859 7.95459Z" fill="#5873B6"/>
</svg>
