<svg width="52" height="42" viewBox="0 0 52 42" fill="none" xmlns="http://www.w3.org/2000/svg">
<g style="mix-blend-mode:difference" clip-path="url(#clip0_319_2224)">
<path fill-rule="evenodd" clip-rule="evenodd" d="M26.4291 21.8413C26.5517 21.6741 26.73 21.4289 26.8452 21.2878C27.7219 20.8122 27.0755 20.3181 28.2309 20.1249C28.4055 20.0952 28.6804 20.0729 28.9405 20.0618C28.8588 20.8865 28.1009 21.5701 28.6024 21.897C28.8922 22.0828 29.8767 21.2246 29.9881 20.9311C30.2333 20.8234 30.0216 21.0091 30.1219 20.6339C30.8426 19.9392 30.8723 19.0216 32.3175 18.8767C32.2878 19.1776 31.8383 19.7943 31.6562 20.2067C31.4407 20.6933 31.1881 21.1206 31.2104 21.8041C32.2432 21.7484 33.2128 19.0513 33.9781 18.5349C34.2976 18.7578 34.4091 19.1033 34.6097 19.5491C35.6797 21.9156 36.3967 22.8592 37.4889 24.8914C37.7898 25.4524 38.5328 26.4926 38.648 26.9644C37.7081 26.9607 36.014 26.4629 35.0778 26.2102C33.4989 25.7867 33.2351 25.7347 31.4222 25.6901C30.408 25.6641 30.408 25.5081 29.6984 25.9762C27.1907 27.6331 28.1492 27.4176 27.3913 28.7031L26.8935 29.1972C25.857 28.926 23.9586 27.3508 22.8738 26.7526C22.506 26.5483 22.1159 26.3886 21.7555 26.2065C18.4417 24.5459 19.3147 24.1929 16.3612 25.679L10.4171 28.8257C10.4951 28.2535 12.3824 25.9985 12.869 25.4486C13.7235 24.4753 14.6671 23.2939 15.5105 22.2537C16.7885 20.6859 18.0887 18.8469 19.1921 17.1083C19.9909 15.8452 19.8311 15.5442 20.6224 15.6854C20.8453 16.3355 20.7487 16.2018 20.4107 16.7405C20.1878 17.0934 20.0726 17.3163 19.8423 17.6655C19.1178 18.7578 16.8962 22.3354 16.8553 23.3942C17.7618 23.1081 18.7983 21.0091 19.3444 20.1472L20.4887 18.442C20.8119 17.9665 21.1908 17.1157 21.5586 16.7851C21.8893 16.8185 21.9153 16.8705 22.1568 16.9894C22.2125 17.5987 21.9636 17.7138 21.6664 18.2822C21.1388 19.2928 20.0243 21.3286 20.0169 22.4283C21.2949 22.1162 22.1976 18.7912 23.0744 17.8996L24.1072 18.8098C24.0254 19.2556 24.0031 19.0959 23.6874 19.4191C23.4347 19.6791 23.4905 19.6828 23.301 19.9392C22.7883 20.1881 22.6769 20.6488 22.3834 21.3212C22.1976 21.7521 21.9376 22.4357 21.9561 22.993C23.3939 23.2865 23.8768 20.4667 24.8093 19.72C25.3926 19.7014 25.6526 19.8537 25.9907 20.1472C25.805 20.894 25.0619 21.5664 25.1102 22.614C25.8087 22.7366 26.3065 22.406 26.4328 21.8302L26.4291 21.8413ZM26.4588 15.6037C27.8854 15.9046 29.2823 15.2619 30.7423 14.7529C31.5299 14.478 33.8258 13.8241 33.9521 12.8805C32.9825 12.4087 30.5231 13.2892 29.6426 13.631C28.9814 13.8873 28.3609 14.0062 27.6662 14.2662C27.3281 14.3926 27.1201 14.5597 26.8229 14.7752C26.4625 15.0316 26.3622 15.0427 26.4625 15.6037H26.4588ZM29.2451 10.1202C29.8358 10.1797 30.1182 10.0831 30.564 9.93074L34.175 8.89052C35.5385 8.39641 36.2035 8.47071 37.5372 7.60139C37.8827 7.37848 38.1205 7.27817 38.113 6.76549C37.6264 6.70977 37.0505 6.65032 36.6159 6.78035C34.9812 7.2596 32.3026 7.84658 30.6903 8.5413C29.977 8.84965 29.0482 9.06884 29.2414 10.1165L29.2451 10.1202ZM35.7428 10.2502C35.7131 10.2317 35.6759 10.2168 35.6536 10.2094C35.6314 10.1982 35.5905 10.1797 35.5608 10.1685C35.5236 10.1574 34.9441 10.0088 34.3608 10.1202C34.0524 10.1797 33.5621 10.2762 33.2277 10.3505C32.403 10.54 31.8643 10.7666 31.1287 10.9635C29.9807 11.2682 26.9975 11.8329 27.8223 13.0031C28.3944 13.813 30.6643 12.7914 31.1584 12.6428C32.2283 12.3233 35.7688 11.5579 35.7428 10.2465V10.2502ZM21.5958 3.60396C23.8806 3.77857 29.104 2.23681 31.515 1.48264C32.2209 1.26345 33.7367 0.706192 34.1676 0.0263321C30.7609 -0.189143 28.4835 0.943957 25.7047 1.62753C25.1474 1.76499 24.6644 1.88016 24.148 2.01762C22.6397 2.41513 21.6218 2.42628 21.5958 3.60024V3.60396ZM19.2887 6.99954C20.6224 7.37477 22.1345 6.88437 23.4013 6.58717L30.1293 4.13521C30.6494 3.92345 31.1807 3.6634 31.6711 3.40706C32.1578 3.15072 32.7856 2.92038 32.9156 2.40027C31.4779 2.27767 30.9912 2.49686 29.8804 2.74206C26.4923 3.4925 22.9295 5.16429 20.4478 5.74384C19.1215 6.0522 19.2256 6.2751 19.285 6.99954H19.2887ZM19.5785 9.85644C20.0317 10.2019 20.7599 10.0608 21.2354 9.95675L22.6954 9.61868C27.7071 8.73449 27.9337 8.21066 31.9609 7.13329C32.1949 7.07013 32.076 7.12214 32.2766 7.02926L33.8444 6.33826C35.1558 5.84415 39.1161 4.31725 40.2269 3.64854C40.8771 3.25474 41.0405 3.29189 41.1705 2.8758C40.9625 2.73463 40.6021 2.71605 40.3607 2.71977C39.3093 2.73091 38.4994 3.0244 38.0313 3.07642C35.7428 3.34019 34.3051 3.82315 32.2469 4.57359L27.0049 6.472C25.348 7.07013 23.3121 7.98404 21.5735 8.34812C21.1685 8.43356 20.6484 8.68991 20.3624 8.92395C19.4039 9.69669 19.5488 9.132 19.5822 9.85644H19.5785ZM1.18511 37.0063C1.08852 37.8013 0.24148 38.0353 0 39.3691L1.58634 38.7041C1.93927 38.8712 1.96156 39.0867 2.29964 39.1647C2.80489 39.2836 2.80489 39.0533 3.26184 38.901C4.27235 38.4774 3.42159 39.7851 4.36894 40.2495C5.0748 40.595 5.79553 40.0303 6.1336 39.7517L6.60913 39.2093C6.63142 39.1833 6.69829 39.1127 6.7243 39.0867C8.21405 37.5152 7.98371 37.9313 9.42517 37.9239C9.29514 38.3103 9.12053 39.1684 9.30257 39.6551C9.49204 40.1678 9.9007 40.2161 10.5397 40.2198C11.3979 42.1479 12.022 41.26 13.43 40.1269C13.9539 40.205 13.7495 40.4762 14.4517 40.3573C14.9866 40.2681 16.0194 38.9715 16.2163 38.6298C16.8851 38.5852 16.9556 38.8155 17.2194 39.1833C18.5308 39.291 18.3414 38.7561 19.1215 38.2434C19.8683 38.5963 19.259 38.7189 20.5295 38.7858C20.5481 40.2235 21.4323 39.9523 21.9933 39.1573C22.2088 38.8527 22.3611 38.6335 22.61 38.288C23.2044 37.4632 22.8775 37.6304 23.4162 37.6044C23.1078 38.3846 22.6286 38.0316 22.8775 39.2985C23.5685 39.4879 23.6576 39.4582 24.1146 39.1907C24.3487 39.4434 24.4155 39.618 24.8168 39.6848C25.6415 39.8297 26.2508 38.9975 26.6669 38.34C27.1795 38.4923 27.1535 38.9344 27.9226 38.8155C28.4538 38.7338 28.5021 38.3846 28.9479 38.2805C29.0482 40.9108 31.0804 39.1387 31.1918 39.1016L31.255 39.291C31.2624 39.3208 31.2736 39.3542 31.2847 39.3876C31.3776 39.7183 31.3293 39.7777 31.5188 39.9783C31.7157 40.1864 32.0649 40.2644 32.4252 40.1678C32.8376 40.0563 33.224 39.4062 33.5138 38.9901C35.323 38.9344 34.1193 40.7474 35.7057 40.5616C36.2518 40.4984 36.7459 39.8892 36.9874 39.5474C38.3434 39.5622 38.6963 39.8186 39.365 38.9158L39.5879 39.8186C40.825 39.9077 40.695 37.6118 42.664 38.7932C42.7272 39.4731 42.7792 39.7814 43.1135 40.231C44.1352 40.4019 44.0832 40.1158 44.6664 39.7703C44.6924 40.2012 44.6256 40.6953 45.0417 40.7808C46.2825 41.0334 45.9593 37.5264 47.5753 39.1722C48.0323 39.6403 48.0249 39.187 48.2886 39.1647C48.2886 39.1647 49.4812 39.3319 49.6335 39.4879C49.8081 39.67 49.6744 39.6588 50.2502 40.1864C50.722 40.6136 50.4062 40.6508 51.049 40.7436C51.1864 40.5579 51.2941 40.4613 51.1864 39.9003C50.9635 38.7635 50.0459 37.8236 49.7412 37.2217C48.7345 35.2379 46.9735 33.0348 46.5946 32.3104L44.8522 30.3117C43.5556 29.1266 43.89 29.0523 43.3513 28.5173C41.4083 26.5892 38.0164 21.0611 36.5378 18.5237C35.8877 17.4055 35.4567 17.1677 35.2859 16.499C34.6246 13.9393 31.6228 16.6402 28.5021 17.4352C27.4656 17.699 26.8563 17.9479 25.8644 17.242C25.0619 16.6699 24.4861 16.0383 24.018 15.6743L21.15 13.4489C20.7785 13.1629 20.2918 13.1109 19.8757 13.4043C19.4968 13.6718 18.6349 14.6972 18.3042 15.0316L9.35086 25.6455L1.19626 37.0063H1.18511Z" fill="white"/>
</g>
<defs>
<clipPath id="clip0_319_2224">
<rect width="51.2236" height="41.3495" fill="white"/>
</clipPath>
</defs>
</svg>
