<svg width="134" height="134" viewBox="0 0 134 134" fill="none" xmlns="http://www.w3.org/2000/svg">
<path d="M40.4792 89.3334C33.5405 89.3334 27.9167 94.9572 27.9167 101.896C27.9167 108.835 33.5405 114.458 40.4792 114.458C47.4179 114.458 53.0417 108.835 53.0417 101.896C53.0417 94.9572 47.4179 89.3334 40.4792 89.3334ZM40.4792 107.479C38.9984 107.479 37.5783 106.891 36.5312 105.844C35.4841 104.797 34.8959 103.377 34.8959 101.896C34.8959 100.415 35.4841 98.995 36.5312 97.9479C37.5783 96.9008 38.9984 96.3126 40.4792 96.3126C41.96 96.3126 43.3801 96.9008 44.4272 97.9479C45.4743 98.995 46.0625 100.415 46.0625 101.896C46.0625 103.377 45.4743 104.797 44.4272 105.844C43.3801 106.891 41.96 107.479 40.4792 107.479ZM124.86 67.5417L107.305 47.9218C105.996 46.4586 104.392 45.2881 102.6 44.4867C100.808 43.6853 98.8664 43.271 96.903 43.2709H75.375V27.9167C75.375 23.2979 71.6189 19.5417 67 19.5417H13.9584C9.33956 19.5417 5.58337 23.2979 5.58337 27.9167V93.5209C5.58337 98.1397 9.33956 101.896 13.9584 101.896H23.7292C23.7292 92.6457 31.229 85.1459 40.4792 85.1459C49.7294 85.1459 57.2292 92.6457 57.2292 101.896H82.3542C82.3542 92.6457 89.854 85.1459 99.1042 85.1459C108.354 85.1459 115.854 92.6457 115.854 101.896H120.042C122.263 101.896 124.393 101.014 125.964 99.4429C127.534 97.8723 128.417 95.7421 128.417 93.5209V76.8505C128.417 73.4156 127.151 70.1013 124.86 67.5417ZM112.944 74.5404C112.835 74.7884 112.656 74.9995 112.429 75.1477C112.203 75.2959 111.938 75.3749 111.667 75.3751H83.75C83.3799 75.3751 83.0248 75.228 82.763 74.9663C82.5013 74.7045 82.3542 74.3494 82.3542 73.9792V57.2292C82.3542 56.8591 82.5013 56.504 82.763 56.2422C83.0248 55.9805 83.3799 55.8334 83.75 55.8334H95.0842C96.2553 55.8334 97.3804 56.3275 98.1718 57.1916L112.695 73.0371C112.878 73.2366 112.999 73.4849 113.043 73.7518C113.087 74.0187 113.053 74.2927 112.944 74.5404ZM99.1042 89.3334C92.1655 89.3334 86.5417 94.9572 86.5417 101.896C86.5417 108.835 92.1655 114.458 99.1042 114.458C106.043 114.458 111.667 108.835 111.667 101.896C111.667 94.9572 106.043 89.3334 99.1042 89.3334ZM99.1042 107.479C97.6234 107.479 96.2033 106.891 95.1562 105.844C94.1091 104.797 93.5209 103.377 93.5209 101.896C93.5209 100.415 94.1091 98.995 95.1562 97.9479C96.2033 96.9008 97.6234 96.3126 99.1042 96.3126C100.585 96.3126 102.005 96.9008 103.052 97.9479C104.099 98.995 104.688 100.415 104.688 101.896C104.688 103.377 104.099 104.797 103.052 105.844C102.005 106.891 100.585 107.479 99.1042 107.479Z" fill="white"/>
</svg>
