<svg width="124" height="124" viewBox="0 0 124 124" fill="none" xmlns="http://www.w3.org/2000/svg">
<path fill-rule="evenodd" clip-rule="evenodd" d="M95.418 80.6104L114.86 100.053C116.573 101.771 117.535 104.098 117.535 106.524C117.535 108.95 116.573 111.277 114.86 112.995L112.995 114.86C112.146 115.711 111.137 116.386 110.027 116.846C108.916 117.306 107.726 117.543 106.524 117.543C105.322 117.543 104.131 117.306 103.021 116.846C101.911 116.386 100.902 115.711 100.053 114.86L80.6104 95.418C86.5053 91.5447 91.5447 86.5053 95.418 80.6104Z" fill="white"/>
<path fill-rule="evenodd" clip-rule="evenodd" d="M52.5399 6.45825C77.9754 6.45825 98.6214 27.1094 98.6214 52.5397C98.6214 77.9701 77.9754 98.6212 52.5399 98.6212C27.1095 98.6212 6.45837 77.9753 6.45837 52.5397C6.45837 27.1094 27.1095 6.45825 52.5399 6.45825ZM30.8089 55.2832L43.4672 67.9416C43.8271 68.3017 44.2544 68.5873 44.7247 68.7822C45.195 68.9771 45.699 69.0774 46.2081 69.0774C46.7172 69.0774 47.2213 68.9771 47.6916 68.7822C48.1619 68.5873 48.5892 68.3017 48.949 67.9416L74.276 42.6197C74.636 42.2598 74.9215 41.8325 75.1163 41.3622C75.3111 40.8919 75.4114 40.3879 75.4114 39.8788C75.4114 39.3698 75.3111 38.8657 75.1163 38.3955C74.9215 37.9252 74.636 37.4979 74.276 37.1379C73.9161 36.778 73.4888 36.4925 73.0185 36.2977C72.5482 36.1029 72.0442 36.0026 71.5351 36.0026C71.0261 36.0026 70.522 36.1029 70.0517 36.2977C69.5815 36.4925 69.1541 36.778 68.7942 37.1379L46.2107 59.7214L36.2855 49.8014C35.5586 49.0752 34.5729 48.6674 33.5454 48.6679C32.5178 48.6684 31.5325 49.0771 30.8063 49.804C30.08 50.5309 29.6723 51.5166 29.6728 52.5442C29.6733 53.5717 30.0819 54.557 30.8089 55.2832Z" fill="white"/>
</svg>
