<svg width="128" height="128" viewBox="0 0 128 128" fill="none" xmlns="http://www.w3.org/2000/svg">
<path d="M46.991 58.4789C49.946 58.4789 52.3415 56.0834 52.3415 53.1284C52.3415 50.1733 49.946 47.7778 46.991 47.7778C44.036 47.7778 41.6404 50.1733 41.6404 53.1284C41.6404 56.0834 44.036 58.4789 46.991 58.4789Z" fill="white"/>
<path d="M80.9825 80.1957C83.9376 80.1957 86.3331 77.8002 86.3331 74.8452C86.3331 71.8901 83.9376 69.4946 80.9825 69.4946C78.0275 69.4946 75.632 71.8901 75.632 74.8452C75.632 77.8002 78.0275 80.1957 80.9825 80.1957Z" fill="white"/>
<path d="M125.098 71.0684L123.157 68.4194C121.059 65.5343 121.007 61.6263 123.079 58.6888L124.967 56.0135C127.852 51.9219 126.514 46.2304 122.082 43.8437L119.197 42.2962C116.049 40.6176 114.318 37.1031 114.922 33.5623L115.472 30.3362C116.312 25.4054 112.614 20.8417 107.604 20.6319L104.326 20.5007C100.759 20.3434 97.6636 17.9304 96.6669 14.4945L95.7489 11.3471C94.3589 6.52117 89.0608 4.0295 84.4447 6.02283L81.4284 7.30801C78.1499 8.72432 74.3206 7.88502 71.9339 5.20976L69.7569 2.77055C66.426 -0.953831 60.5771 -0.927603 57.2724 2.87547L55.1217 5.3409C52.7612 8.04239 48.9581 8.93415 45.6534 7.57029L42.6109 6.31134C37.9685 4.39669 32.7229 6.99327 31.3853 11.8192L30.5198 14.9928C29.5756 18.4549 26.5331 20.9204 22.9661 21.104L19.6876 21.2876C14.678 21.5761 11.0585 26.1922 11.9765 31.1231L12.5798 34.3491C13.2355 37.8637 11.5569 41.4045 8.43574 43.1355L5.57688 44.7354C1.19679 47.1747 -0.0621532 52.8924 2.90162 56.9315L4.84249 59.5805C6.94074 62.4656 6.99319 66.3736 4.92118 69.3111L3.03276 71.9864C0.147671 76.078 1.4853 81.7695 5.91784 84.1562L8.80293 85.7037C11.9503 87.3823 13.6813 90.8968 13.0781 94.4376L12.5273 97.6637C11.688 102.595 15.3862 107.158 20.3957 107.368L23.6742 107.499C27.2413 107.657 30.3362 110.07 31.3328 113.505L32.2508 116.653C33.6409 121.479 38.939 123.97 43.5551 121.977L46.5713 120.692C49.8498 119.276 53.6791 120.115 56.0659 122.79L58.2428 125.229C61.6 128.954 67.4489 128.928 70.7274 125.124L72.8781 122.659C75.2386 119.958 79.0417 119.066 82.3464 120.43L85.3889 121.689C90.0312 123.603 95.2768 121.007 96.6145 116.181L97.48 113.007C98.4242 109.545 101.467 107.08 105.034 106.896L108.312 106.712C113.322 106.424 116.941 101.808 116.023 96.8768L115.42 93.6508C114.764 90.1362 116.443 86.5954 119.564 84.8644L122.423 83.2645C126.803 80.8515 128.062 75.1338 125.098 71.0684ZM34.0606 53.1284C34.0606 45.9944 39.8307 40.2242 46.9648 40.2242C54.0988 40.2242 59.869 45.9944 59.869 53.1284C59.869 60.2625 54.0988 66.0326 46.9648 66.0326C39.8307 66.0326 34.0606 60.2362 34.0606 53.1284ZM49.4564 86.4118C48.3548 87.7495 46.3615 87.9331 45.0239 86.8315C43.6862 85.7299 43.5027 83.7366 44.6042 82.3989L78.4647 41.6143C79.5662 40.2767 81.5596 40.0931 82.8972 41.1947C84.2348 42.2962 84.4184 44.2896 83.3168 45.6272L49.4564 86.4118ZM80.9826 87.7495C73.8485 87.7495 68.0783 81.9793 68.0783 74.8453C68.0783 67.7112 73.8485 61.9411 80.9826 61.9411C88.1166 61.9411 93.8868 67.7112 93.8868 74.8453C93.8868 81.9793 88.1166 87.7495 80.9826 87.7495Z" fill="white"/>
</svg>
