<svg width="116" height="116" viewBox="0 0 116 116" fill="none" xmlns="http://www.w3.org/2000/svg">
<g clip-path="url(#clip0_358_4132)">
<path d="M20.4292 70.9169L45.8212 45.5249L51.8865 51.597C54.7461 54.4712 58.5524 56.0546 62.6031 56.0546C66.6538 56.0546 70.4601 54.4712 73.3211 51.5959C79.2045 45.6828 79.2045 36.0621 73.3211 30.149L63.8111 20.6139L68.5352 16.4595C80.4184 6.04596 98.4935 7.23745 108.907 19.1207C119.321 31.0039 118.129 49.079 106.246 59.4925L99.4585 65.7656L91.9234 58.2306C87.5395 53.8466 80.4061 53.8466 76.0224 58.2306C73.9317 60.321 72.7683 63.0905 72.7325 66.0413C69.9016 66.0775 67.082 67.1707 64.9269 69.3258C62.7708 71.4822 61.6774 74.3038 61.6425 77.1361C58.81 77.171 55.9884 78.2643 53.832 80.4208C49.4482 84.8047 49.448 91.9381 53.8317 96.3221L59.8667 102.357L54.7629 107.074C51.2811 110.125 45.9847 109.776 42.9334 106.294C39.882 102.812 40.2312 97.5158 43.7132 94.4647C40.2314 97.516 34.9351 97.1669 31.8839 93.6849C28.8328 90.2028 29.1817 84.9067 32.6638 81.8556L32.6633 81.8551C29.1815 84.9065 23.8852 84.5573 20.8338 81.0753C18.2191 78.0915 18.3704 74.3244 20.4292 70.9169Z" fill="white"/>
<path d="M8.37939 15.2273C19.5521 4.05478 37.6662 4.05478 48.8389 15.2273L68.5032 34.9436C70.8515 37.304 71.5729 40.9371 70.3343 44.0224C68.9867 47.379 65.516 49.5281 61.9093 49.2286C59.9205 49.0635 58.0469 48.1699 56.6499 46.7482L45.8243 35.9104L17.2135 64.5207L8.37962 55.6866C-2.79309 44.5141 -2.79309 26.3997 8.37939 15.2273ZM90.5223 79.0193L80.8284 69.3254C80.4142 68.9134 80.0858 68.4234 79.8622 67.8836C79.6386 67.3439 79.5243 66.7652 79.5259 66.1809C79.5243 65.5967 79.6386 65.018 79.8622 64.4782C80.0858 63.9385 80.4142 63.4485 80.8284 63.0365C81.6952 62.1697 82.8344 61.7362 83.9729 61.7362C85.1118 61.7362 86.2503 62.1696 87.1173 63.0367L96.811 72.7304C98.5381 74.4575 98.5436 77.263 96.8296 78.9987C96.8013 79.0266 96.7721 79.0531 96.7435 79.0805C95.9116 79.8798 94.8239 80.3218 93.6666 80.3218C93.0824 80.3234 92.5037 80.2091 91.964 79.9855C91.4243 79.7619 90.9343 79.4335 90.5223 79.0193ZM79.4269 90.1148L69.733 80.4208C69.3188 80.0089 68.9904 79.5188 68.7669 78.979C68.5433 78.4393 68.4291 77.8606 68.4307 77.2764C68.4291 76.6922 68.5433 76.1135 68.7669 75.5737C68.9904 75.034 69.3188 74.5439 69.733 74.1319C70.5731 73.2921 71.6896 72.8294 72.8774 72.8294C74.0653 72.8294 75.182 73.2921 76.0219 74.1319L85.7158 83.8259C86.13 84.2378 86.4585 84.7279 86.682 85.2676C86.9056 85.8074 87.0199 86.3861 87.0183 86.9703C87.0197 87.5512 86.9066 88.1266 86.6854 88.6637C86.4642 89.2007 86.1393 89.6889 85.7292 90.1003C85.7108 90.1184 85.6918 90.1354 85.6734 90.1533C83.9362 91.8462 81.1472 91.8348 79.4269 90.1148ZM68.3319 101.21L58.638 91.5161C56.9043 89.7822 56.9041 86.9608 58.638 85.2271C59.4781 84.3873 60.5946 83.9244 61.7824 83.9244C62.9703 83.9244 64.087 84.387 64.9269 85.2269L74.6208 94.9208C75.0351 95.3328 75.3635 95.8229 75.587 96.3626C75.8106 96.9024 75.9249 97.4811 75.9233 98.0653C75.9248 98.6478 75.8111 99.2249 75.5887 99.7633C75.3663 100.302 75.0396 100.791 74.6274 101.203C74.6183 101.211 74.6092 101.22 74.6 101.229C72.8643 102.942 70.0592 102.937 68.3319 101.21Z" fill="white"/>
</g>
<defs>
<clipPath id="clip0_358_4132">
<rect width="116" height="116" fill="white"/>
</clipPath>
</defs>
</svg>
