<svg width="98" height="98" viewBox="0 0 98 98" fill="none" xmlns="http://www.w3.org/2000/svg">
<g clip-path="url(#clip0_358_4128)">
<path d="M94.5298 49.0001H3.4702V82.6876H94.5298V49.0001ZM70.1389 71.0195C72.2237 72.8977 70.8825 76.3578 68.089 76.3578C67.3578 76.3578 66.6266 76.0994 66.0409 75.573L59.068 69.2968C55.1231 71.6549 46.5691 76.3578 41.1007 76.3578C33.1095 76.3578 26.8486 71.5822 26.8486 65.4859C26.8486 59.3896 33.1095 54.614 41.1007 54.614C46.5711 54.614 55.125 59.3169 59.0699 61.675L66.0409 55.4007C67.2984 54.2695 69.2336 54.3709 70.3667 55.6285C71.4979 56.886 71.3945 58.8211 70.1389 59.9543L63.9909 65.4878L70.1389 71.0195ZM94.9375 32.9736H3.0625C1.37104 32.9736 0 34.3449 0 36.0361C0 37.7274 1.37104 39.0986 3.0625 39.0986H3.4702V42.8751H94.5298V39.0986H94.9375C96.629 39.0986 98 37.7274 98 36.0361C98 34.3449 96.629 32.9736 94.9375 32.9736ZM94.9375 91.8751H94.5298V88.8126H3.4702V91.8751H3.0625C1.37104 91.8751 0 93.2463 0 94.9376C0 96.6288 1.37104 98.0001 3.0625 98.0001H94.9375C96.629 98.0001 98 96.6288 98 94.9376C98 93.2463 96.629 91.8751 94.9375 91.8751Z" fill="white"/>
<path d="M32.9736 65.4858C32.9736 67.731 36.3117 70.2327 41.1007 70.2327C43.8933 70.2327 49.0881 67.8669 53.41 65.4877C49.0861 63.1066 43.8876 60.7389 41.1007 60.7389C36.3117 60.7389 32.9736 63.2406 32.9736 65.4858ZM24.0043 26.8486C26.7852 22.3932 24.0845 16.4571 18.8344 15.6972C12.2848 14.8845 8.36619 21.7947 11.5208 26.8486H24.0043ZM32.3458 26.8486H44.8293C47.9448 21.8571 44.1704 14.8832 37.5214 15.6953C32.3289 16.4533 29.525 22.3295 32.3458 26.8486ZM28.175 14.4148C29.9474 12.2462 32.3381 10.6939 35.0446 9.96461C36.875 5.19017 33.3315 0 28.2056 0C22.9854 0 19.4907 5.2074 21.3035 9.96461C24.0081 10.692 26.4007 12.2423 28.175 14.4148ZM42.1304 9.96461C44.835 10.692 47.2257 12.2423 49 14.4148C50.7724 12.2462 53.1631 10.6939 55.8696 9.96461C56.679 7.85321 56.5073 5.28855 55.0465 3.16203C51.3534 -2.17227 42.9014 -0.423774 41.7629 6.06375C41.4287 7.7265 42.0129 9.96461 42.1304 9.96461ZM53.1708 26.8486H65.6543C68.4233 22.4121 65.7661 16.4326 60.4442 15.6915C54.2893 14.8246 49.8619 21.5476 53.1708 26.8486ZM62.9554 9.96461C65.66 10.692 68.0507 12.2423 69.825 14.4148C71.5974 12.2462 73.9881 10.6939 76.6946 9.96461C76.7137 9.96461 77.175 8.79512 77.175 7.35C77.175 3.34942 73.941 0 69.7944 0C65.7844 0 62.475 3.26884 62.475 7.35C62.475 8.70994 62.9252 9.96461 62.9554 9.96461ZM73.9958 26.8486H86.4793C89.5029 22.0044 86.0176 15.6187 80.2375 15.6187C74.4768 15.6187 70.9505 21.9696 73.9958 26.8486Z" fill="white"/>
</g>
<defs>
<clipPath id="clip0_358_4128">
<rect width="98" height="98" fill="white"/>
</clipPath>
</defs>
</svg>
