<svg width="303" height="204" viewBox="0 0 303 204" fill="none" xmlns="http://www.w3.org/2000/svg">
<path d="M210.499 29.4333C211.102 29.9335 211.709 30.4259 212.281 30.9603L211.903 31.2306L211.971 32.4076C211.178 31.816 210.432 31.1482 209.674 30.5118C210.137 30.2373 210.273 29.893 210.499 29.4333Z" fill="white"/>
<path d="M84.0941 169.542C84.7021 170.045 85.2715 170.566 85.8309 171.122C85.5752 171.741 85.5653 171.978 84.9826 172.344C84.1124 171.642 83.357 170.83 82.5806 170.029L82.7102 169.785C83.2175 169.578 83.5572 169.554 84.0941 169.542Z" fill="white"/>
<path d="M85.8308 171.122C86.5692 171.845 87.3224 172.559 88.0285 173.315L87.7255 173.606L87.8128 173.787C88.0496 174.294 88.1814 174.614 88.1532 175.189C87.0793 174.259 86.0224 173.31 84.9824 172.344C85.5651 171.978 85.575 171.741 85.8308 171.122Z" fill="white"/>
<path d="M110.033 64.1717L110.383 64.4455L110.733 64.3184C111.175 64.1598 111.622 64.0418 112.078 63.9272C111.507 64.5091 110.912 65.0805 110.376 65.6945C109.74 66.423 108.925 67.1027 107.97 67.3514L107.811 67.1062C108.121 65.8649 109.061 64.9527 110.033 64.1717Z" fill="white"/>
<path d="M216.191 34.2107C217.192 35.1956 218.495 36.249 219.328 37.3659L219.05 37.7137C219.125 38.1985 219.225 38.6889 219.27 39.1764C217.933 37.8367 216.626 36.4459 215.125 35.2843C215.207 35.2668 215.292 35.2578 215.371 35.2312C215.897 35.0552 215.962 34.6689 216.191 34.2107Z" fill="white"/>
<path d="M211.971 32.4078L211.903 31.2308L212.281 30.9604C213.613 32.0096 214.916 33.093 216.19 34.2106C215.961 34.6689 215.897 35.0551 215.371 35.2312C215.291 35.2577 215.207 35.2668 215.124 35.2843C214.104 34.2896 213.044 33.3473 211.971 32.4078Z" fill="white"/>
<path d="M133.245 10.7519C134.783 10.2944 136.536 10.1177 138.138 9.97729C139.325 11.016 141.949 10.3349 143.518 10.5682C141.434 11.009 139.202 11.1152 137.082 11.3303C135.717 11.1361 134.379 11.6859 133.245 10.7519Z" fill="white"/>
<path d="M60.5474 73.1504C61.3372 70.9026 62.1764 68.6394 63.2038 66.4873C63.4912 66.9637 63.5737 67.2948 64.1 67.5113C63.4849 69.0977 62.9649 71.0255 62.1208 72.4847L61.8791 72.3052C61.7952 72.3995 61.7135 72.4952 61.6282 72.5874C61.2893 72.9541 61.0202 73.0261 60.5474 73.1504Z" fill="white"/>
<path d="M148.278 197.286C150.94 196.929 153.792 197.321 156.505 197.102C157.383 197.192 158.733 196.996 159.497 197.349L159.576 197.663L159.18 198.178C155.24 199.026 146.288 198.664 142.25 198.054L142.502 197.576C143.528 196.762 146.831 197.513 148.278 197.286Z" fill="white"/>
<path d="M189.377 61.4934C191.232 63.3019 199.142 71.172 199.388 73.4785C199.392 73.5113 199.384 73.5442 199.382 73.577C198.985 73.7041 198.813 73.8892 198.472 74.0848C198.42 74.1149 198.359 74.1225 198.303 74.1414C195.467 69.8937 192.328 66.1483 188.57 62.6781C189.076 62.2981 189.129 62.0606 189.377 61.4934Z" fill="white"/>
<path d="M173.934 53.1222C174.792 53.0475 175.362 53.1299 176.186 53.3793C176.562 53.4931 176.393 53.4589 176.823 53.4694L177.096 53.2836C180.823 54.3907 186.302 59.0498 189.377 61.4939C189.129 62.0611 189.076 62.2986 188.57 62.6786C187.477 61.7091 186.35 60.7807 185.188 59.8936C184.027 59.0065 182.834 58.1629 181.609 57.3629C180.384 56.5633 179.131 55.8096 177.851 55.1018C176.57 54.394 175.264 53.7341 173.934 53.1222Z" fill="white"/>
<path d="M159.547 47.6533C164.207 48.4629 173.306 50.5347 177.096 53.2833L176.823 53.4691C176.393 53.4587 176.562 53.4929 176.185 53.379C175.362 53.1297 174.792 53.0472 173.934 53.122C167.962 50.8532 163.467 49.5638 157.101 48.6061C157.454 48.4615 157.718 48.363 158.102 48.3302C158.512 48.2953 158.851 48.2282 159.252 48.1353L159.547 47.6533Z" fill="white"/>
<path d="M60.0034 133.55C60.4861 133.615 60.9356 133.653 61.4246 133.656C63.1418 137.155 64.329 140.945 66.0116 144.488C67.1975 146.986 68.9337 149.272 70.0462 151.782L69.5502 151.939C69.2937 152.479 69.4015 152.762 69.4699 153.348C66.8318 149.43 64.4953 144.824 62.7218 140.454C61.81 138.207 61.1618 135.672 60.0034 133.55Z" fill="white"/>
<path d="M138.138 9.97744C144.925 8.5853 157.238 8.58111 164.055 9.97255C163.59 10.4922 163.588 10.4399 162.899 10.4846C161.436 10.5796 159.945 10.3539 158.494 10.5712C156.252 10.5851 154 10.3672 151.754 10.3483C149.007 10.3267 146.263 10.5146 143.517 10.5684C141.949 10.3351 139.325 11.0161 138.138 9.97744Z" fill="white"/>
<path d="M192.751 18.4607C199.108 21.4699 204.909 25.2007 210.498 29.4336C210.273 29.8933 210.136 30.2376 209.674 30.5121C206.27 27.9793 202.826 25.4703 199.155 23.3258C196.411 21.7228 193.538 20.3676 190.745 18.856C191.201 18.8372 191.645 18.8218 192.1 18.87L192.433 18.9084L192.751 18.4607Z" fill="white"/>
<path d="M69.47 153.348C69.4017 152.763 69.2939 152.48 69.5504 151.939L70.0464 151.783C72.6619 155.676 75.2049 159.552 78.2403 163.145C80.1047 165.354 82.2601 167.327 84.0943 169.542C83.5573 169.554 83.2177 169.578 82.7104 169.786L82.5807 170.029C77.6745 165.469 72.9663 159.038 69.47 153.348Z" fill="white"/>
<path d="M132.764 50.028C141.431 46.9776 150.488 46.5501 159.547 47.6538L159.252 48.1357C158.851 48.2286 158.512 48.2957 158.102 48.3306C157.717 48.3635 157.454 48.4619 157.101 48.6065C149.746 47.9946 142.849 48.5716 135.698 50.4345C134.785 50.422 133.475 50.6064 132.764 50.028Z" fill="white"/>
<path d="M132.763 50.0273C133.475 50.6057 134.784 50.4213 135.698 50.4339C126.564 53.2035 119.167 57.6404 112.077 63.9271C111.622 64.0416 111.175 64.1597 110.732 64.3182L110.383 64.4454L110.033 64.1716C114.972 58.0679 125.283 52.3813 132.763 50.0273Z" fill="white"/>
<path d="M114.647 189.99C125.547 194.581 136.54 196.436 148.278 197.285C146.831 197.512 143.528 196.762 142.502 197.576L142.25 198.054C141.018 198.181 139.543 197.866 138.312 197.712C129.746 196.634 121.569 194.139 113.576 190.965C113.924 190.367 113.997 190.21 114.647 189.99Z" fill="white"/>
<path d="M219.328 37.366C225.35 42.9736 230.42 50.292 234.446 57.391C234.977 58.327 236.11 59.8805 236.253 60.931C236.294 61.2286 236.197 61.5262 236.11 61.8056L235.836 61.9271C234.505 61.1287 232.177 56.1155 231.205 54.5445C227.74 48.9403 223.543 44.159 219.27 39.1765C219.225 38.689 219.125 38.1986 219.05 37.7138L219.328 37.366Z" fill="white"/>
<path d="M164.055 9.97192C173.288 10.7396 184.463 14.4033 192.752 18.4603L192.433 18.908L192.101 18.8696C191.645 18.8214 191.201 18.8368 190.745 18.8556C188.988 18.5252 186.795 17.2742 185.078 16.6022C182.651 15.6709 180.188 14.8443 177.689 14.1225C173.609 12.8982 169.457 11.9918 165.236 11.4032C163.059 11.0972 160.832 10.9862 158.674 10.6041L158.494 10.5705C159.946 10.3533 161.437 10.5789 162.899 10.4839C163.588 10.4392 163.59 10.4916 164.055 9.97192Z" fill="white"/>
<path d="M88.0286 173.316C96.1598 180.063 104.774 185.997 114.647 189.99C113.997 190.211 113.924 190.367 113.576 190.965C104.263 187.116 95.854 181.589 88.1533 175.189C88.1815 174.615 88.0497 174.294 87.813 173.788L87.7256 173.606L88.0286 173.316Z" fill="white"/>
<path d="M63.2036 66.4873C64.2852 62.0496 71.5427 50.9607 74.5697 46.968C75.2936 46.0059 76.0358 45.0578 76.7963 44.1237C77.5568 43.1895 78.3351 42.2703 79.1314 41.3659C79.9271 40.4616 80.7402 39.5726 81.5707 38.699C82.4012 37.8249 83.2482 36.9672 84.1115 36.1257C84.9749 35.2842 85.8543 34.4595 86.7496 33.6515C87.6449 32.8431 88.5555 32.0522 89.4814 31.2787C90.4072 30.5052 91.3477 29.7494 92.3026 29.0113C93.2576 28.2732 94.2265 27.5538 95.2092 26.8529C96.1919 26.1516 97.188 25.4692 98.1974 24.8056C99.2064 24.1424 100.228 23.4987 101.262 22.8742C102.296 22.2492 103.341 21.6443 104.399 21.0594C105.456 20.4745 106.524 19.9099 107.603 19.3655C108.683 18.8212 109.772 18.2973 110.871 17.7939C111.97 17.291 113.079 16.809 114.197 16.348C115.315 15.8869 116.441 15.4471 117.576 15.0285C118.711 14.6103 119.854 14.2138 121.004 13.8389C124.951 12.5515 129.126 11.3263 133.245 10.7515C134.379 11.6854 135.717 11.1356 137.082 11.3298C132.745 12.233 128.41 12.9336 124.159 14.2182C123.497 14.4152 122.838 14.6191 122.182 14.8301C121.525 15.0415 120.871 15.2599 120.219 15.4853C119.567 15.7102 118.918 15.9426 118.271 16.1824C117.624 16.4218 116.98 16.6681 116.339 16.9214C115.697 17.1748 115.059 17.4351 114.423 17.7024C113.788 17.9692 113.155 18.243 112.526 18.5238C111.896 18.8051 111.269 19.0929 110.647 19.3872C110.023 19.6815 109.403 19.9826 108.786 20.2904C108.17 20.5987 107.557 20.9132 106.947 21.2341C106.338 21.5554 105.731 21.8832 105.129 22.2176C104.526 22.5519 103.928 22.8926 103.333 23.2395C102.738 23.5869 102.147 23.9406 101.56 24.3005C100.973 24.661 100.389 25.0275 99.8103 25.4C99.2311 25.7725 98.6561 26.1514 98.0854 26.5365C97.5151 26.9216 96.9489 27.313 96.3866 27.7107C95.8243 28.1079 95.2667 28.5114 94.7138 28.9212C94.1605 29.3305 93.6118 29.7459 93.0679 30.1674C92.5239 30.5888 91.9846 31.016 91.4501 31.4491C90.915 31.8822 90.3852 32.3209 89.8605 32.7651C89.3353 33.2099 88.8153 33.6602 88.3005 34.1161C87.7856 34.572 87.2757 35.0332 86.7707 35.4998C86.2658 35.9669 85.7662 36.4391 85.272 36.9164C84.7774 37.3942 84.2882 37.8773 83.8043 38.3658C83.3205 38.8538 82.8421 39.3472 82.369 39.846C81.8965 40.3447 81.4291 40.8483 80.9669 41.3569C80.5051 41.8658 80.049 42.3797 79.5985 42.8985C79.148 43.4168 78.7034 43.9402 78.2647 44.4687C77.8255 44.9968 77.3924 45.5298 76.9654 46.0676C76.5379 46.605 76.1166 47.1473 75.7013 47.6945C75.2861 48.2412 74.8769 48.7923 74.4739 49.3479C74.0708 49.9034 73.6739 50.4634 73.2831 51.0278C72.8923 51.5917 72.5078 52.1601 72.1296 52.7328C70.1454 55.7462 68.2634 58.8707 66.6499 62.0964C65.7599 63.8755 65.0314 65.7594 64.0999 67.5113C63.5735 67.2948 63.4911 66.9637 63.2036 66.4873Z" fill="white"/>
<path d="M170.965 195.203C172.125 194.836 173.358 194.604 174.544 194.322L174.759 194.878C175.47 195.138 176.196 194.952 176.931 194.951C175.826 195.358 174.76 195.635 173.607 195.872C173.534 195.741 173.49 195.645 173.378 195.533C172.848 195.005 171.658 195.185 170.965 195.203Z" fill="white"/>
<path d="M131.182 156.776C131.689 156.608 131.672 156.454 131.956 156.028L132.706 155.932L134.252 156.509C134.508 157.239 134.952 157.587 135.526 158.09C134.04 157.869 132.561 157.357 131.182 156.776Z" fill="white"/>
<path d="M156.505 197.102C158.572 196.794 160.74 196.784 162.832 196.52C165.563 196.177 168.244 195.582 170.965 195.202C171.658 195.184 172.848 195.004 173.378 195.533C173.49 195.644 173.534 195.74 173.607 195.871C168.973 196.977 163.953 198.015 159.18 198.177L159.576 197.663L159.497 197.349C158.733 196.995 157.383 197.192 156.505 197.102Z" fill="white"/>
<path d="M102.576 133.663C103.143 133.864 103.429 134.148 103.838 134.562L104.191 134.597L104.424 134.33L104.682 134.623C106.728 136.972 108.45 139.562 110.596 141.846C115.977 147.574 125.094 153.82 132.707 155.931L131.956 156.027C131.672 156.454 131.689 156.607 131.182 156.775C130.011 156.347 128.855 155.882 127.714 155.379C126.573 154.876 125.451 154.337 124.346 153.762C123.241 153.186 122.155 152.575 121.091 151.929C120.026 151.284 118.983 150.605 117.963 149.891C116.943 149.178 115.948 148.432 114.977 147.655C114.006 146.877 113.061 146.069 112.143 145.23C111.226 144.391 110.336 143.524 109.476 142.627C108.615 141.731 107.785 140.808 106.985 139.858C105.369 137.961 103.687 135.9 102.576 133.663Z" fill="white"/>
<path d="M198.024 133.625L198.155 134.709C198.561 134.668 198.784 134.564 199.151 134.398C191.871 146.405 178.417 155.39 164.823 158.701C157.577 160.466 147.984 161.22 140.705 159.341C141.955 159.213 143.223 159.429 144.448 159.297C144.938 159.244 144.952 159.137 145.254 158.774C149.14 159.162 153.487 159.149 157.371 158.748L157.486 158.739C159.835 158.115 162.389 157.921 164.784 157.342C177.855 154.188 191.019 145.111 198.024 133.625ZM157.371 158.748C157.663 159.137 157.678 159.219 158.183 159.302C159.047 159.443 160.112 159.246 160.982 159.167C159.816 158.993 158.661 158.834 157.486 158.739L157.371 158.748Z" fill="white"/>
<path d="M157.372 158.747L157.486 158.739C158.661 158.834 159.817 158.993 160.982 159.167C160.112 159.246 159.047 159.443 158.183 159.302C157.678 159.219 157.663 159.136 157.372 158.747Z" fill="white"/>
<path d="M240.661 133.589C241.127 134.808 240.17 135.635 240.855 136.84C232.426 159.902 213.921 179.248 191.617 189.618C188.037 191.283 180.575 194.556 176.931 194.95C176.196 194.952 175.47 195.137 174.759 194.878L174.543 194.322C177.458 193.56 180.331 192.668 183.162 191.645C185.994 190.622 188.772 189.472 191.497 188.196C192.21 187.858 192.918 187.512 193.622 187.157C194.326 186.802 195.025 186.439 195.72 186.067C196.415 185.695 197.105 185.315 197.79 184.925C198.475 184.536 199.155 184.139 199.831 183.734C200.506 183.328 201.176 182.914 201.841 182.492C202.506 182.069 203.166 181.639 203.82 181.201C204.474 180.763 205.123 180.316 205.766 179.862C206.409 179.408 207.046 178.946 207.678 178.476C208.309 178.006 208.935 177.528 209.554 177.042C210.174 176.557 210.788 176.064 211.395 175.564C212.002 175.064 212.603 174.556 213.198 174.041C213.792 173.526 214.381 173.003 214.962 172.473C215.544 171.944 216.118 171.407 216.686 170.863C217.254 170.32 217.815 169.77 218.37 169.212C218.924 168.655 219.472 168.091 220.012 167.52C220.552 166.948 221.085 166.371 221.611 165.787C222.137 165.203 222.655 164.612 223.166 164.016C223.677 163.419 224.181 162.816 224.677 162.207C225.173 161.598 225.661 160.982 226.141 160.361C226.622 159.74 227.095 159.113 227.56 158.481C228.025 157.848 228.482 157.21 228.931 156.566C229.38 155.922 229.821 155.272 230.254 154.617C230.686 153.963 231.111 153.303 231.527 152.637C231.943 151.972 232.351 151.302 232.751 150.627C233.15 149.952 233.541 149.271 233.924 148.586C234.306 147.902 234.68 147.212 235.045 146.518C235.41 145.824 235.767 145.126 236.115 144.423C236.463 143.72 236.802 143.013 237.132 142.302C237.462 141.591 237.783 140.876 238.095 140.157C238.408 139.438 238.711 138.715 239.005 137.989C239.299 137.262 239.584 136.532 239.86 135.799C240.136 135.065 240.403 134.329 240.661 133.589Z" fill="white"/>
<path d="M134.252 156.508C137.946 157.555 141.5 158.072 145.254 158.774C144.952 159.137 144.938 159.244 144.448 159.296C143.223 159.428 141.955 159.213 140.705 159.34C139.154 159.23 136.893 158.792 135.526 158.09C134.952 157.586 134.508 157.239 134.252 156.508Z" fill="white"/>
<path d="M60.5475 73.1506C61.0203 73.0263 61.2895 72.9543 61.6284 72.5876C61.7136 72.4954 61.7954 72.3997 61.8792 72.3054L62.1209 72.4849C61.937 73.05 61.6601 73.4824 61.8531 74.0573C66.4726 74.4079 71.3006 74.1271 75.9383 74.123L103.403 74.1132L198.303 74.1418C198.359 74.123 198.42 74.1153 198.472 74.0852C198.813 73.8897 198.985 73.7045 199.382 73.5774C199.479 73.6417 199.572 73.7101 199.671 73.7709C200.198 74.0936 200.812 74.1097 201.414 74.132C208.328 74.3849 215.388 74.109 222.317 74.1125L266.166 74.1195C270.353 74.1167 283.172 73.5858 286.616 74.6601C288.636 75.2902 290.771 77.6986 291.351 79.6915C292.268 82.8467 291.802 87.5728 291.802 90.9292L291.799 105.205L291.803 118.597C291.802 121.128 291.937 123.756 291.69 126.273C291.661 126.588 291.613 126.899 291.547 127.209C291.482 127.518 291.399 127.822 291.298 128.122C291.197 128.422 291.08 128.715 290.945 129.001C290.81 129.287 290.66 129.565 290.493 129.834C289.375 131.615 287.371 133.072 285.274 133.46C283.088 133.865 280.61 133.663 278.39 133.655L267.345 133.618L251.182 133.626C248.162 133.628 245.046 133.78 242.038 133.521L240.855 136.84C240.171 135.635 241.127 134.808 240.661 133.589C236.088 133.655 200.49 133.377 199.882 133.634C199.852 133.646 199.465 134.011 199.455 134.022C199.353 134.128 199.242 134.279 199.151 134.398C198.784 134.563 198.561 134.667 198.155 134.709L198.024 133.625C167.285 133.22 136.517 133.897 105.773 133.589C105.301 133.584 104.812 133.446 104.446 133.757L104.424 134.33L104.191 134.597L103.838 134.562C103.429 134.148 103.143 133.864 102.576 133.664C94.0299 133.353 85.3815 133.627 76.8268 133.631L67.2617 133.613C65.3368 133.599 63.3363 133.467 61.4247 133.656C60.9357 133.653 60.4862 133.615 60.0035 133.55C58.1102 133.763 56.0922 133.618 54.1799 133.617L42.9703 133.62L26.8607 133.635C24.1149 133.638 21.315 133.768 18.576 133.616C17.4256 133.553 16.1472 133.39 15.0908 132.919C13.2274 132.088 11.6693 130.418 10.9636 128.521C10.4651 127.181 10.3064 125.589 10.2306 124.167C9.87771 117.539 10.2325 110.703 10.223 104.059C10.2134 97.396 9.85516 89.704 10.2667 83.2169C10.363 81.699 10.5609 80.0373 11.2213 78.6507C12.144 76.7137 13.9441 75.1016 16.0205 74.4799C19.004 73.5872 23.1911 74.116 26.3351 74.1188C29.5812 74.1223 59.2891 74.3688 60.1036 74.0035C60.3565 73.8903 60.451 73.4028 60.5475 73.1506ZM19.9162 78.8079C18.4224 79.0426 17.2696 79.4156 16.3246 80.6555C15.603 81.6019 15.4063 82.6972 15.2925 83.8525C15.0698 86.1143 15.2254 88.4949 15.2321 90.7734L15.2547 103.416L15.2287 117.141C15.2254 119.622 14.9966 122.345 15.4017 124.795C15.6282 126.164 16.1621 127.327 17.3651 128.112C18.4609 128.827 19.7311 128.909 21.0035 128.947C24.3622 129.048 27.7521 128.905 31.1131 128.893L48.3577 128.911L106.082 128.915L184.588 128.912C197.78 128.91 211.008 129.117 224.196 128.9C225.706 128.519 226.906 127.8 227.69 126.419C228.123 125.658 228.293 124.906 228.351 124.039C228.527 121.397 228.432 118.697 228.433 116.048L228.429 102.331C228.427 98.988 228.862 84.3988 228.114 82.1328C227.724 80.9474 226.97 80.0331 225.844 79.4659C224.698 78.8882 223.399 78.7415 222.13 78.7129C210.419 78.4509 198.622 78.7136 186.904 78.7178L117.298 78.7276L53.7593 78.7157C42.4932 78.7178 31.173 78.4775 19.9162 78.8079Z" fill="white"/>
<path d="M238.267 79.9072C239.993 79.7259 241.833 79.8325 243.657 79.8682L244.438 79.8779H244.438L256.364 79.8965H256.365L273.156 79.8887C275.762 79.8873 278.394 79.7364 280.939 79.8818L281.447 79.915C282.801 80.0147 283.916 80.5362 284.807 81.5146L284.981 81.7158C285.344 82.1543 285.611 82.9709 285.774 84.0996C285.935 85.2052 285.986 86.5222 285.986 87.8809C285.986 89.2378 285.935 90.6175 285.896 91.8516C285.858 93.0325 285.831 94.0972 285.873 94.8535L285.817 95.0938C285.584 95.172 285.332 95.1963 285.025 95.207L284.598 95.2188C281.223 95.3152 277.818 95.1938 274.402 95.1621L272.938 95.1553C260.221 95.1539 247.437 94.9418 234.705 95.2363C234.702 94.6015 234.681 93.9718 234.647 93.3398C234.662 92.6007 234.623 91.5544 234.59 90.3994C234.556 89.2243 234.527 87.9197 234.557 86.6504C234.587 85.3781 234.676 84.1601 234.876 83.1553C235.055 82.2555 235.309 81.6037 235.622 81.2197L235.76 81.0713C236.381 80.4948 237.26 80.0579 238.1 79.9287L238.267 79.9072Z" fill="white" stroke="#C2C2C2"/>
<path d="M234.147 93.3503C234.19 94.1515 234.214 94.9451 234.204 95.7476C247.097 95.4354 260.039 95.654 272.938 95.6554C276.809 95.6554 280.751 95.8287 284.612 95.7183C285.177 95.7022 285.735 95.7204 286.247 95.4571L286.376 94.9003C286.663 96.1584 286.46 97.7642 286.456 99.0788C286.446 103.308 286.173 107.703 286.448 111.91L234.063 111.937L234.049 99.1836C234.046 97.3221 233.815 95.17 234.147 93.3503Z" fill="#005BA9"/>
<path d="M234.064 111.937L286.449 111.91C286.384 115.4 287.068 122.33 285.953 125.314C285.478 126.588 284.737 127.36 283.495 127.925C282.935 128.18 282.311 128.412 281.692 128.467C279.332 128.674 276.822 128.501 274.446 128.5L260.086 128.493L245.642 128.504C243.326 128.507 240.903 128.669 238.604 128.482C237.759 128.414 236.832 128.001 236.043 127.7C235.407 127.059 234.84 126.505 234.532 125.636C233.532 122.817 234.048 115.317 234.064 111.937Z" fill="#E6160B"/>
<path d="M48.4902 97.9515C49.2949 97.6379 50.1158 97.179 50.9726 97.5541C51.3418 97.7154 51.3841 97.8369 51.6222 98.1401C51.5814 98.731 51.4679 99.1425 50.9874 99.5371C50.6323 99.8284 50.2067 100.029 49.7938 100.224C50.0164 99.5679 50.3398 98.9825 50.1919 98.2973C49.6782 97.9627 49.0856 97.9913 48.4902 97.9515Z" fill="white"/>
<path d="M20.8884 85.5534C22.9763 85.362 25.6115 85.239 27.6831 85.5415C28.5349 85.6651 29.291 85.874 29.8244 86.5781C29.7701 86.9176 29.8202 86.9441 29.5496 87.2026C28.2136 88.4795 25.0499 88.061 23.3187 88.0128L23.3138 94.8806C23.3342 95.8732 23.3687 96.8728 23.3455 97.8654C23.3272 98.6652 23.182 99.8331 22.4633 100.34C22.0264 100.649 21.8378 100.58 21.372 100.455C21.1456 100.221 20.9667 100.024 20.8414 99.7199C20.1877 98.1343 20.22 87.1404 20.8884 85.5534Z" fill="white"/>
<path d="M42.7525 89.2065C43.1478 87.7536 43.7502 86.6192 45.1263 85.883C46.427 85.1873 48.4218 85.0357 49.8127 85.5386C50.3933 85.7482 51.2431 86.2811 51.5341 86.8434C51.7758 87.3094 51.7377 87.4274 51.589 87.8898C51.1839 88.2244 50.84 88.4752 50.2855 88.4738C48.9622 88.4703 47.8468 87.0446 46.5821 88.1092C45.5991 88.9362 45.2658 90.1104 45.2038 91.3356C45.1207 92.9967 44.8945 95.9192 46.0592 97.2387C46.6687 97.9289 47.3881 97.9296 48.2407 97.9477L48.4901 97.9512C49.0855 97.991 49.6781 97.9624 50.1918 98.297C50.3397 98.9822 50.0163 99.5676 49.7937 100.223L49.5964 100.271C47.9279 100.661 46.1001 100.605 44.6268 99.6318C43.4282 98.8404 42.99 97.7291 42.7032 96.3886C42.1395 94.2142 42.2797 91.3929 42.7525 89.2065Z" fill="white"/>
<path d="M42.7525 89.2068C43.5346 90.3055 43.2197 94.227 43.0329 95.6038C42.9843 95.9621 42.9237 96.0976 42.7032 96.3889C42.1395 94.2144 42.2797 91.3931 42.7525 89.2068Z" fill="white"/>
<path d="M53.9834 85.517C55.6209 85.4415 63.7133 85.0993 64.6942 85.8048C65.088 86.0884 65.2318 86.416 65.1705 86.9C65.162 86.9727 65.1465 87.0439 65.124 87.1138C65.1019 87.1836 65.0733 87.2507 65.038 87.3149C65.0028 87.3792 64.9617 87.4395 64.9147 87.4959C64.8677 87.5527 64.8158 87.6044 64.759 87.6509C63.8522 88.3851 61.8701 88.0763 60.754 88.0526C60.544 90.7887 60.6786 93.6079 60.6835 96.3537C60.6885 97.1584 60.7082 97.9785 60.6448 98.7818C60.5891 99.4908 60.4559 100.017 59.888 100.485C59.3448 100.623 59.3088 100.643 58.7916 100.441C57.2042 98.6896 57.9193 90.7342 57.9623 88.061C56.9089 88.0687 55.4934 88.23 54.4858 87.9555C53.9622 87.8123 53.7967 87.6321 53.5169 87.1913C53.4831 86.5103 53.6818 86.1198 53.9834 85.517Z" fill="white"/>
<path d="M161.096 107.307C161.855 107.164 163.166 107.552 163.88 107.842C164.543 108.111 164.877 108.469 165.146 109.112C165.128 109.668 165.162 109.689 164.793 110.1C163.619 110.385 162.42 109.815 161.216 109.919C160.47 109.983 159.836 110.302 159.399 110.913C158.267 112.494 158.506 116.13 158.913 117.963C159.057 118.611 159.333 119.399 159.981 119.705C160.783 120.085 162.292 119.786 163.113 119.604C163.795 119.453 164.24 119.364 164.933 119.517C164.991 119.53 165.048 119.545 165.105 119.56C165.063 120.029 165.058 120.672 164.803 121.081C164.3 121.886 163.517 122.152 162.632 122.369C161.127 122.737 159.633 122.612 158.319 121.751C156.927 120.839 156.256 119.315 155.974 117.736C155.522 115.196 155.54 111.462 157.124 109.318C158.218 107.835 159.369 107.552 161.096 107.307Z" fill="white"/>
<path d="M149.868 107.308C150.043 107.269 150.125 107.24 150.322 107.253C151.415 107.322 152.886 107.678 153.607 108.531C153.954 108.942 154.022 109.202 154.007 109.722C152.695 111.098 150.586 109.605 148.986 109.878C148.577 110.102 148.382 110.307 148.197 110.739C147.467 112.438 147.242 117.056 147.986 118.751C149.144 121.388 151.997 118.853 153.924 119.723C153.976 119.746 154.027 119.771 154.079 119.795C154.032 120.221 153.995 120.586 153.774 120.963C153.287 121.791 152.379 122.153 151.481 122.369C150.004 122.725 148.484 122.61 147.194 121.761C145.883 120.899 145.161 119.511 144.862 118.01C144.352 115.444 144.349 111.545 145.925 109.348C147.003 107.845 148.135 107.555 149.868 107.308Z" fill="white"/>
<path d="M180.043 85.3917C181.195 85.2506 182.869 85.1423 183.931 85.6984C184.671 86.0853 185.125 86.6588 185.35 87.4454C185.28 87.7192 185.3 87.9057 185.059 88.088C183.881 88.9814 182.201 87.8896 180.926 87.8072C180.55 87.7834 180.162 87.8784 179.891 88.1474C178.704 89.323 178.816 93.3646 178.981 94.9208C179.074 95.7891 179.274 97.1337 180.087 97.6548C181.338 98.4567 183.456 97.432 184.745 97.124C185.101 97.5878 185.355 97.9307 185.253 98.544C185.14 99.2286 184.395 99.749 183.809 100.023C182.458 100.655 180.786 100.672 179.396 100.152C179.24 100.094 179.087 100.028 178.938 99.9536C178.788 99.8796 178.643 99.7981 178.502 99.7092C178.361 99.6202 178.225 99.5243 178.095 99.4214C177.964 99.318 177.839 99.2083 177.72 99.0924C177.601 98.9764 177.489 98.8546 177.382 98.727C177.276 98.5995 177.177 98.4665 177.084 98.3282C176.992 98.1904 176.908 98.0481 176.83 97.9014C176.753 97.7547 176.684 97.6043 176.622 97.4502C175.645 95.0501 175.766 90.1731 176.901 87.8323C177.58 86.4304 178.616 85.8849 180.043 85.3917Z" fill="white"/>
<path d="M89.1068 107.518C90.5816 107.481 97.5523 107.15 98.5465 107.707C99.0151 107.97 99.1659 108.256 99.3343 108.74C99.2694 109.228 99.2828 109.504 98.8551 109.832C97.9434 110.532 96.1692 110.297 95.0883 110.255C95.0157 113.571 95.07 116.898 95.0488 120.216C94.9636 120.637 94.8882 121.094 94.7029 121.486C94.471 121.977 93.9806 122.563 93.4416 122.715C93.1605 122.794 93.0097 122.636 92.7666 122.514C91.258 120.484 91.9492 112.921 91.9647 110.318C91.301 110.329 90.6337 110.344 89.9707 110.312C89.0723 110.268 88.3529 110.177 87.7343 109.48C87.5165 108.906 87.568 108.671 87.7004 108.097C88.1887 107.631 88.4551 107.649 89.1068 107.518Z" fill="white"/>
<path d="M151.634 85.2322C152.285 85.2461 153.029 85.2552 153.473 85.8015C154.33 86.852 153.724 88.7213 153.66 89.943C153.624 90.6338 153.717 91.4 154.271 91.889C155.476 92.9521 157.467 92.4283 158.876 92.211C158.869 90.3572 158.648 88.1143 159.16 86.333C159.343 85.6946 159.571 85.4215 160.149 85.1064C160.716 85.1658 160.916 85.3111 161.355 85.6394C162.15 87.6148 161.719 92.0637 161.71 94.3478C161.715 95.529 161.805 96.7828 161.692 97.9549C161.591 98.9894 161.347 99.952 160.518 100.63C160.202 100.616 160.124 100.682 159.881 100.435C158.557 99.0886 158.862 96.2589 158.871 94.4973C158.745 94.5385 158.62 94.5811 158.494 94.6216C156.827 95.1483 154.505 95.427 152.913 94.5392C151.954 94.0041 151.432 93.0856 151.184 92.0497C150.787 90.3921 150.763 86.6732 151.634 85.2322Z" fill="white"/>
<path d="M167.654 97.585C169.546 97.5249 172.203 97.1261 173.885 98.1194C174.16 98.5343 174.329 98.741 174.183 99.2733C174.064 99.7099 173.717 100.069 173.294 100.226C172.186 100.638 167.226 100.634 166.135 100.19C165.619 99.9809 165.226 99.6226 165.02 99.098C164.711 98.3149 164.78 86.9166 165.088 86.1524C165.358 85.8905 165.455 85.7424 165.823 85.6167C166.946 85.2325 172.251 85.1221 173.227 85.7598C173.735 86.0916 173.756 86.2292 173.9 86.7797C173.793 87.1178 173.795 87.3371 173.502 87.5697C172.313 88.512 169.302 88.0712 167.79 88.0279L167.643 91.6162C169.379 91.6015 171.442 91.1139 173.031 91.9096C173.458 92.5152 173.341 92.7317 173.298 93.4519C172.97 93.8801 172.793 94.1315 172.223 94.2042C171.641 94.2782 171.002 94.2209 170.414 94.216C169.533 94.2503 168.64 94.1972 167.757 94.1762L167.654 97.585ZM170.414 94.216C171.002 94.2209 171.641 94.2782 172.223 94.2042C172.793 94.1315 172.97 93.8801 173.298 93.4519C173.25 93.3695 173.198 93.2884 173.153 93.2046C172.988 92.9021 172.929 92.6807 172.868 92.3482C172.463 92.2372 172.54 92.1883 172.12 92.3783C172.113 92.7757 172.137 93.1585 172.173 93.5546C171.877 93.7655 171.8 93.7655 171.455 93.8312C171.051 93.908 170.77 94.003 170.414 94.216Z" fill="white"/>
<path d="M170.414 94.2158C170.771 94.0028 171.051 93.9078 171.455 93.8309C171.8 93.7653 171.878 93.7653 172.173 93.5543C172.137 93.1583 172.114 92.7755 172.12 92.378C172.54 92.188 172.463 92.2369 172.868 92.348C172.929 92.6805 172.989 92.9019 173.153 93.2044C173.199 93.2882 173.25 93.3692 173.298 93.4516C172.97 93.8798 172.793 94.1313 172.223 94.2039C171.641 94.278 171.002 94.2207 170.414 94.2158Z" fill="white"/>
<path d="M51.7163 107.147C51.9341 107.176 52.1518 107.205 52.3667 107.254C54.6496 107.769 52.9114 111.683 53.8337 113.235C54.3157 113.568 54.5425 113.587 55.1055 113.609C56.5894 112.958 57.6604 110.007 58.5771 108.658C59.1056 107.879 59.479 107.388 60.4345 107.194C60.9735 107.442 61.0475 107.502 61.385 107.986C61.7479 110.108 59.0964 113.136 58.0438 114.937C59.0422 116.833 60.4303 118.656 61.5858 120.479C61.6676 121.025 61.6027 121.524 61.2589 121.972C60.9369 122.393 60.6297 122.492 60.1301 122.573C57.8768 121.785 57.1517 117.395 55.0442 115.928C54.7553 115.727 54.668 115.693 54.3347 115.743C52.9593 117.037 54.0331 120.229 53.1446 121.929C52.8895 122.417 52.6929 122.537 52.1842 122.715C51.6656 122.611 51.4472 122.507 51.0526 122.156C50.4114 120.722 50.7637 112.177 50.7715 110.004C50.7764 108.716 50.7419 108.104 51.7163 107.147Z" fill="white"/>
<path d="M188.254 85.2983C188.911 85.2368 189.483 85.2571 190.025 85.6615C190.963 87.0585 190.368 88.9033 190.53 90.5022C190.592 91.1113 190.701 91.5682 191.203 91.9691C193.561 91.8043 194.76 86.5549 196.875 85.4436C197.314 85.2124 197.56 85.2312 198.024 85.3507C198.262 85.6091 198.48 85.7551 198.559 86.11C198.89 87.5852 195.794 91.5814 194.943 92.9107C196.154 94.6214 197.502 96.3795 198.383 98.2823C198.569 98.7496 198.659 99.1016 198.476 99.5997C198.293 100.103 198.023 100.284 197.569 100.529C194.735 100.497 194.716 95.3094 192.265 94.2763C191.803 94.0821 191.436 94.2106 191.001 94.3734C190.168 95.3248 190.514 97.0655 190.478 98.2557C190.453 99.094 190.456 99.8742 189.803 100.492C189.275 100.707 189.046 100.661 188.507 100.558C188.317 100.346 188.189 100.152 188.098 99.8805C187.429 97.8848 187.33 87.0432 188.254 85.2983Z" fill="white"/>
<path d="M93.7637 85.2633C93.863 85.2619 93.9631 85.2584 94.0624 85.2598C94.6733 85.271 95.2053 85.3367 95.5949 85.8508C96.4778 87.018 95.9339 90.1543 95.8444 91.5786L101.422 91.6052C101.293 90.2933 101.222 88.8621 101.334 87.5468C101.429 86.4341 101.719 85.7823 102.585 85.081C102.895 85.0231 102.969 84.935 103.263 85.1565C103.728 85.5057 103.911 86.5004 103.987 87.0362C104.276 89.094 104.319 97.7339 103.898 99.5451C103.808 99.9335 103.576 100.271 103.344 100.589C102.759 100.557 102.415 100.543 101.922 100.181C100.894 98.6329 101.299 96.0086 101.307 94.2225L95.9909 94.2455C95.936 95.7872 96.4067 98.9738 95.318 100.168C94.9559 100.564 94.7276 100.561 94.2343 100.593C93.8109 100.392 93.5713 100.207 93.4114 99.747C92.785 97.9462 92.9315 88.3969 93.3078 86.3963C93.3846 85.9905 93.565 85.6224 93.7637 85.2633Z" fill="white"/>
<path d="M34.9282 85.1575C35.4299 85.2609 35.8921 85.3524 36.2521 85.7498C37.7755 87.429 40.8293 96.8911 40.6306 99.1683C40.5911 99.6181 40.458 100.053 40.0627 100.326C39.5878 100.653 39.3975 100.605 38.8761 100.502C37.896 99.6705 37.7417 98.3901 37.4894 97.2026L34.59 97.1866L32.653 97.1845C32.4113 98.2378 32.1428 99.396 31.5031 100.281C30.9718 100.58 30.9535 100.551 30.344 100.456C29.9586 100.154 29.7655 100.043 29.5915 99.5706C28.9566 97.846 32.1823 89.1607 33.0187 87.2558C33.4894 86.1822 33.8149 85.5926 34.9282 85.1575ZM34.881 90.068C34.4096 91.2688 33.2723 93.3524 33.7261 94.5958C34.2398 94.8305 34.5463 94.7299 35.1008 94.674C35.6589 94.7166 35.9478 94.8633 36.4114 94.5155C36.6009 93.2896 36.0542 91.6145 35.3812 90.5793C35.2354 90.3544 35.0938 90.2182 34.881 90.068Z" fill="white"/>
<path d="M104.4 107.18C104.908 107.172 105.342 107.312 105.748 107.622C107.324 108.826 110.181 118.47 110.35 120.507C110.399 121.093 110.346 121.795 109.874 122.218C109.532 122.524 109.016 122.632 108.576 122.531C107.627 122.313 107.664 120.287 107.069 119.609C106.687 119.171 106.248 119.279 105.714 119.256C104.613 119.272 103.51 119.218 102.408 119.181C102.141 120.089 101.901 121.226 101.346 122.002C101.022 122.455 100.819 122.558 100.285 122.677C99.8682 122.519 99.561 122.341 99.3609 121.919C98.7774 120.689 99.766 117.901 100.13 116.651C100.767 114.465 102.077 109.547 103.395 107.905C103.65 107.587 104.047 107.374 104.4 107.18ZM104.544 112.156C104.135 113.301 103.231 114.934 103.293 116.122C103.519 116.516 103.553 116.673 104.051 116.747C104.477 116.81 104.996 116.747 105.43 116.733L106.077 116.6C106.348 115.703 105.485 113.228 104.957 112.472C104.841 112.306 104.722 112.23 104.544 112.156Z" fill="white"/>
<path d="M68.4108 107.166C69.1894 107.238 69.7411 107.399 70.2943 107.983C71.4477 109.2 74.5001 119.25 74.4324 121.025C74.4092 121.637 74.2633 122.007 73.7934 122.425C73.2395 122.573 73.1106 122.605 72.5582 122.473C71.7084 121.709 71.8437 120.455 71.1743 119.651C70.772 119.168 70.3098 119.278 69.739 119.252C68.6539 119.264 67.566 119.211 66.4816 119.179C66.3231 119.869 66.1674 120.557 65.9024 121.215C65.6156 121.927 65.3606 122.314 64.6376 122.61C64.1698 122.504 63.9077 122.374 63.6012 122.014C63.196 121.538 63.2326 121.002 63.3165 120.424C63.7181 117.644 66.1878 108.778 68.4108 107.166ZM68.8435 112.018C68.048 113.22 67.5068 115.028 67.2757 116.451L67.418 116.7L69.1056 116.736L70.0258 116.671C70.3492 116.211 70.2442 115.762 70.1533 115.215C70.0004 114.292 69.3832 112.785 68.8435 112.018Z" fill="white"/>
<path d="M204.865 85.3269C204.916 85.3199 204.967 85.3108 205.017 85.3052C205.778 85.2291 206.541 85.2193 207.129 85.7851C208.628 87.2282 211.317 96.4689 211.347 98.591C211.357 99.3405 211.271 99.9014 210.71 100.45C210.148 100.585 210.034 100.605 209.482 100.45C208.825 99.791 208.623 98.533 208.347 97.6585C207.891 97.2233 207.882 97.2512 207.243 97.2079C205.979 97.2149 204.719 97.1765 203.455 97.1332C203.184 98.2515 203.058 99.784 202.015 100.448C201.436 100.555 201.204 100.455 200.678 100.244C200.47 99.9726 200.373 99.9042 200.313 99.5521C199.882 97.0256 203.352 87.5552 204.865 85.3269ZM205.662 90.0453C205.289 91.0736 204.043 93.4583 204.46 94.4816C204.556 94.7191 204.612 94.7149 204.921 94.7792C205.176 94.8316 205.608 94.7338 205.874 94.7058L207.235 94.8253C207.559 94.2036 206.581 91.5171 206.331 90.8018C206.195 90.4135 206.006 90.2458 205.662 90.0453Z" fill="white"/>
<path d="M120.375 107.508C121.787 107.469 123.232 107.38 124.642 107.444C126.52 107.529 127.639 108.185 128.872 109.535C129.105 110.468 129.277 111.446 129.263 112.408C129.245 113.589 128.964 114.787 128.06 115.619C126.471 117.083 124.162 116.861 122.171 116.757C122.179 118.149 122.476 120.799 121.734 121.976C121.489 122.365 121.129 122.506 120.709 122.623C120.377 122.518 120.264 122.531 120.024 122.257C119.631 121.81 119.494 121.174 119.41 120.602C119.163 118.909 119.094 109.852 119.453 108.295C119.578 107.755 119.915 107.725 120.375 107.508ZM122.188 110.281C122.153 111.638 122.142 113 122.059 114.353C123.374 114.346 124.664 114.382 125.935 113.994C126.403 113.126 126.724 112.325 126.513 111.335C126.168 110.784 125.799 110.554 125.179 110.39C124.261 110.147 123.137 110.263 122.188 110.281Z" fill="white"/>
<path d="M67.9569 85.5155C70.1891 85.4065 74.1053 84.9832 75.9429 86.3893C76.9216 87.1374 77.4184 88.3214 77.5283 89.5186C77.6509 90.85 77.3331 92.2435 76.4312 93.2655C75.0044 94.8846 72.9364 94.9167 70.9395 95.0048C70.8902 94.9992 70.8408 94.9817 70.7908 94.988C69.6395 95.1361 70.726 99.1672 69.5169 100.387C68.9919 100.601 68.7397 100.623 68.1802 100.537C68.0365 100.366 68.0231 100.367 67.9089 100.132C67.1099 98.4882 67.2325 87.1779 67.9569 85.5155ZM70.275 88.0127C70.2461 89.4348 70.1686 90.8759 70.2229 92.2966C71.5624 92.3141 72.8948 92.377 74.1751 91.9145C74.557 91.2363 74.9001 90.3478 74.7303 89.5564C74.6133 89.0136 74.2004 88.665 73.7227 88.4317C72.6362 87.9016 71.4524 88.0029 70.275 88.0127Z" fill="white"/>
<path d="M77.7845 107.499C80.1689 107.452 83.8357 106.927 85.6444 108.761C86.5787 109.71 86.9085 111.051 86.8528 112.344C86.7986 113.615 86.3357 114.898 85.3443 115.744C83.7547 117.103 81.6267 116.917 79.6841 116.739C79.4079 118.167 79.9329 120.131 79.4403 121.452C79.2001 122.096 78.8337 122.33 78.2249 122.597C77.7112 122.507 77.6083 122.469 77.2793 122.02C76.5352 121.006 76.4845 109.452 76.8861 108.205C77.0425 107.72 77.3554 107.688 77.7845 107.499ZM79.6256 110.207L79.5453 114.379C80.9102 114.343 82.2017 114.371 83.4954 113.882C83.873 113.345 84.2458 112.265 84.1232 111.621C84.033 111.147 83.6377 110.848 83.2262 110.659C82.0728 110.129 80.8517 110.304 79.6256 110.207Z" fill="white"/>
<path d="M175.944 109.942C176.049 109.268 176.113 108.27 176.52 107.705C176.841 107.258 177.092 107.229 177.59 107.135C177.771 107.218 177.928 107.275 178.077 107.423C179.437 108.772 178.991 116.601 178.957 118.758C178.934 120.147 179.077 121.507 178.003 122.533C177.258 122.557 177.03 122.501 176.487 122.02C175.536 119.856 176.159 115.941 176.149 113.535C174.762 115.104 172.714 116.752 171.631 118.507C170.833 119.798 170.317 121.715 168.943 122.49C168.421 122.493 168.369 122.506 167.943 122.216C167.083 119.882 167.394 112.057 167.61 109.434C167.696 108.386 167.791 107.885 168.626 107.186C169.003 107.227 169.499 107.297 169.77 107.586C170.921 108.814 170.286 114.554 170.234 116.371C172.163 114.249 173.976 112.032 175.944 109.942Z" fill="white"/>
<path d="M183.007 107.147C183.652 107.215 183.897 107.309 184.391 107.728C185.319 109.719 184.787 114.103 184.743 116.386C186.223 114.667 188.933 112.062 190.028 110.275C190.631 109.29 190.583 107.921 191.604 107.217C192.142 107.209 192.398 107.278 192.833 107.612C193.179 107.878 193.241 108.292 193.297 108.7C193.606 110.957 193.689 119.348 193.204 121.417C193.097 121.875 192.84 122.195 192.552 122.557C191.96 122.564 191.409 122.621 191.009 122.115C190.07 120.928 190.597 115.115 190.639 113.445C188.685 115.525 186.824 117.714 184.918 119.84L184.881 120.082L184.818 120.467C184.761 120.839 184.732 121.25 184.61 121.608C184.431 122.138 184.124 122.309 183.664 122.58C183.16 122.574 183.033 122.59 182.657 122.204C181.459 120.979 181.955 112.537 182 110.509C182.03 109.186 181.983 108.123 183.007 107.147Z" fill="white"/>
<path d="M139.676 94.3892C141.176 92.7205 144.976 89.1357 145.529 87.1128C145.714 86.4339 145.867 85.5949 146.604 85.2911C147.127 85.0759 147.325 85.194 147.784 85.4203C148.069 85.8206 148.268 86.1698 148.337 86.6637C148.582 88.4526 148.59 97.3146 148.298 99.1014C148.194 99.7364 147.917 100.14 147.519 100.632C147.076 100.624 146.758 100.579 146.338 100.436C144.788 98.8227 145.678 94.0903 145.548 91.8969L145.532 91.6553C143.734 93.3086 141.539 95.6151 140.218 97.6597C139.558 98.6816 139.946 99.7657 138.821 100.533C138.546 100.575 138.362 100.669 138.104 100.526C137.629 100.266 137.369 99.7266 137.217 99.2279C136.694 97.5095 136.775 88.3701 137.117 86.496C137.195 86.065 137.403 85.676 137.621 85.3002C138.291 85.2939 138.798 85.2506 139.397 85.6047C140.206 86.8467 139.748 92.6912 139.676 94.3892Z" fill="white"/>
<path d="M216.56 85.5727C218.103 85.4163 221.99 85.0223 223.272 85.9052C224.052 87.8729 223.704 94.1756 223.648 96.5324C223.618 97.8365 223.594 99.6185 222.585 100.571C222.398 100.589 222.013 100.656 221.816 100.607C220.135 100.187 221.342 96.5045 220.58 94.9489C219.951 94.5451 219.522 94.6751 218.785 94.6932C217.752 96.3145 217.089 98.6859 215.801 100.064C215.44 100.451 215.211 100.513 214.694 100.561C214.119 100.362 214.024 100.314 213.629 99.8587C213.149 98.1062 215.04 95.5273 215.892 93.9794C214.771 93.2955 214.149 92.8072 213.714 91.5136C213.275 90.2123 213.319 88.7824 213.955 87.5509C214.58 86.3439 215.302 86.0009 216.56 85.5727ZM217.308 88.1035C216.77 88.6239 216.267 89.4097 216.255 90.1857C216.249 90.6488 216.533 91.0309 216.894 91.2894C217.692 91.86 218.364 91.8838 219.32 91.8768L220.319 91.8705L220.713 91.7727C221.056 90.6921 220.889 89.1435 220.893 88.0008C219.709 88.0245 218.485 87.9931 217.308 88.1035Z" fill="white"/>
<path d="M127.263 94.3178C128.489 91.6537 129.635 88.3532 131.385 86.0195C131.829 85.4285 132.213 85.0779 132.955 84.9668C133.277 85.1645 133.41 85.2749 133.546 85.6311C134.093 87.0603 134.182 98.9343 133.424 100.166C133.136 100.633 133.046 100.634 132.543 100.723C132.229 100.59 131.929 100.475 131.707 100.202C131.072 99.4225 131.287 97.7741 131.301 96.8178C131.323 94.9751 131.33 93.1324 131.321 91.2897C130.365 92.9173 129.526 96.5796 128.045 97.6218C127.803 97.7929 127.521 97.9019 127.225 97.8537C125.13 97.5114 124.506 93.4265 123.376 92.012L123.156 92.1405C122.585 94.037 123.363 96.6222 123.158 98.6465C123.08 99.4142 122.923 99.9646 122.297 100.459C121.786 100.574 121.743 100.602 121.266 100.404C121.074 100.176 120.919 99.9639 120.82 99.6803C120.345 98.3259 120.379 88.1744 120.619 86.5357C120.686 86.0816 120.848 85.6849 121.058 85.279C121.492 85.2623 122.035 85.205 122.437 85.4006C124.093 86.206 126.433 92.4556 127.263 94.3178Z" fill="white"/>
<path d="M110.642 85.363C111.805 85.2568 113.065 85.1492 114.195 85.488C115.497 85.8777 116.55 86.7167 117.136 87.944C118.194 90.1638 118.145 95.087 117.222 97.3592C116.567 98.9728 115.684 99.7146 114.083 100.352C112.833 100.632 111.482 100.644 110.266 100.197C108.982 99.7237 108.01 98.7639 107.487 97.5157C106.553 95.286 106.615 90.3608 107.585 88.1333C108.256 86.5923 109.133 85.9993 110.642 85.363ZM111.064 87.9118C110.235 88.4895 110.078 89.1936 109.925 90.1589C109.611 92.1323 109.309 95.5075 110.598 97.1441C111.01 97.668 111.582 97.9201 112.241 97.962C112.709 97.9914 113.193 97.8922 113.652 97.8119C115.172 96.3247 115.028 94.1279 115.034 92.1274C115.038 90.8121 114.961 89.3396 113.937 88.368C113.348 87.8078 112.679 87.7875 111.917 87.8364C111.632 87.8559 111.348 87.8811 111.064 87.9118Z" fill="white"/>
<path d="M135.994 107.271C137.081 107.113 138.356 107.256 139.355 107.719C140.583 108.288 141.457 109.403 141.885 110.659C142.685 113.008 142.669 117.684 141.518 119.883C140.702 121.441 139.629 122.041 137.976 122.52C136.544 122.646 135.1 122.556 133.849 121.781C132.654 121.04 131.972 119.903 131.668 118.559C131.109 116.083 131.101 111.42 132.568 109.254C133.477 107.913 134.463 107.568 135.994 107.271ZM136.177 109.748C135.221 110.265 134.818 110.656 134.527 111.707C133.985 113.662 133.787 117.282 134.937 119.029C135.307 119.593 135.87 119.913 136.538 120.007C136.907 120.058 137.287 120.061 137.659 120.067C138.562 119.563 138.944 119.115 139.224 118.113C139.769 116.153 139.881 112.703 138.85 110.918C138.512 110.332 138.038 109.961 137.369 109.808C136.982 109.72 136.571 109.737 136.177 109.748Z" fill="white"/>
<path d="M83.0711 85.4029C84.2978 85.215 85.7388 85.1214 86.9288 85.5182C87.0886 85.5699 87.245 85.6295 87.3981 85.697C87.5513 85.765 87.7004 85.8406 87.8456 85.924C87.9907 86.0074 88.1311 86.0979 88.2669 86.1957C88.4027 86.2935 88.5328 86.3981 88.6573 86.5094C88.7817 86.6207 88.9001 86.7382 89.0124 86.8621C89.1246 86.9855 89.2301 87.1145 89.3288 87.2491C89.4274 87.3837 89.5185 87.5229 89.6021 87.6668C89.6862 87.8111 89.7623 87.9592 89.8304 88.1111C90.9071 90.449 90.862 94.821 89.9474 97.2197C89.3372 98.82 88.522 99.5751 86.969 100.258C85.7979 100.565 84.6833 100.66 83.4903 100.384C83.3273 100.347 83.1667 100.302 83.0084 100.249C82.8501 100.196 82.6951 100.134 82.5433 100.065C82.3916 99.9949 82.2441 99.9176 82.1009 99.8328C81.9571 99.7476 81.8185 99.6552 81.6851 99.5555C81.5513 99.4559 81.4232 99.3497 81.3011 99.237C81.1785 99.1243 81.0625 99.0053 80.953 98.88C80.8431 98.7552 80.7403 98.6248 80.6444 98.4889C80.5486 98.3529 80.4603 98.2125 80.3795 98.0677C79.1337 95.8212 79.2155 90.9638 80.0518 88.5588C80.6395 86.8712 81.4759 86.1552 83.0711 85.4029ZM83.9596 87.8624C83.0986 88.4449 82.816 88.8962 82.6082 89.9048C82.1995 91.8879 81.9444 95.3036 83.1261 97.0248C83.5122 97.5878 84.0385 97.8581 84.7058 97.9447C85.1102 97.9964 85.5239 97.972 85.9297 97.9489C86.561 97.6751 86.8936 97.3929 87.1536 96.7419C87.8455 95.0096 87.9167 90.6927 87.0543 89.0457C86.8041 88.5693 86.4039 88.0838 85.8621 87.9231C85.2455 87.7408 84.591 87.8177 83.9596 87.8624Z" fill="white"/>
</svg>
