<svg width="200" height="135" viewBox="0 0 200 135" fill="none" xmlns="http://www.w3.org/2000/svg">
<path d="M138.943 19.478C139.341 19.809 139.742 20.1349 140.12 20.4885L139.87 20.6674L139.915 21.4463C139.391 21.0548 138.899 20.6129 138.399 20.1917C138.704 20.0101 138.794 19.7822 138.943 19.478Z" fill="#C3C3C3"/>
<path d="M55.5078 112.197C55.9092 112.53 56.285 112.875 56.6542 113.243C56.4854 113.652 56.4789 113.809 56.0943 114.051C55.5199 113.587 55.0213 113.049 54.5088 112.519L54.5944 112.358C54.9292 112.221 55.1534 112.205 55.5078 112.197Z" fill="#C3C3C3"/>
<path d="M56.6542 113.242C57.1416 113.721 57.6388 114.194 58.1048 114.694L57.9048 114.886L57.9625 115.006C58.1188 115.341 58.2057 115.553 58.1871 115.933C57.4783 115.318 56.7807 114.69 56.0942 114.051C56.4789 113.808 56.4854 113.652 56.6542 113.242Z" fill="#C3C3C3"/>
<path d="M72.629 42.4665L72.8602 42.6477L73.0908 42.5635C73.3829 42.4586 73.6782 42.3805 73.9787 42.3047C73.602 42.6897 73.2094 43.0679 72.8555 43.4742C72.4355 43.9563 71.8979 44.4061 71.2677 44.5706L71.1621 44.4084C71.3672 43.587 71.9872 42.9833 72.629 42.4665Z" fill="#C3C3C3"/>
<path d="M142.7 22.6396C143.361 23.2914 144.221 23.9885 144.771 24.7276L144.587 24.9578C144.637 25.2786 144.702 25.6031 144.732 25.9258C143.85 25.0392 142.987 24.1189 141.996 23.3501C142.051 23.3386 142.106 23.3326 142.159 23.315C142.506 23.1985 142.549 22.9429 142.7 22.6396Z" fill="#C3C3C3"/>
<path d="M139.915 21.4466L139.87 20.6677L140.119 20.4888C140.998 21.1831 141.859 21.9 142.7 22.6396C142.549 22.9429 142.506 23.1985 142.159 23.315C142.106 23.3325 142.05 23.3386 141.996 23.3501C141.323 22.6919 140.623 22.0683 139.915 21.4466Z" fill="#C3C3C3"/>
<path d="M87.9507 7.11517C88.966 6.8124 90.1231 6.69545 91.1803 6.60254C91.9639 7.28991 93.6959 6.83921 94.7312 6.9936C93.3559 7.28528 91.8825 7.35555 90.4836 7.49792C89.5822 7.36941 88.699 7.7332 87.9507 7.11517Z" fill="#C3C3C3"/>
<path d="M39.9653 48.4084C40.4867 46.9209 41.0406 45.4232 41.7187 43.999C41.9085 44.3143 41.9629 44.5334 42.3103 44.6767C41.9043 45.7265 41.5611 47.0023 41.0039 47.9679L40.8444 47.8491C40.789 47.9115 40.7351 47.9749 40.6788 48.0359C40.4551 48.2786 40.2774 48.3262 39.9653 48.4084Z" fill="#C3C3C3"/>
<path d="M97.8734 130.557C99.6305 130.321 101.513 130.58 103.304 130.435C103.883 130.495 104.774 130.365 105.279 130.599L105.331 130.807L105.07 131.147C102.469 131.708 96.56 131.469 93.8945 131.065L94.061 130.749C94.7382 130.21 96.9181 130.707 97.8734 130.557Z" fill="#C3C3C3"/>
<path d="M125.001 40.6943C126.225 41.8911 131.446 47.0993 131.609 48.6257C131.612 48.6474 131.606 48.6691 131.605 48.6908C131.343 48.775 131.229 48.8975 131.004 49.0269C130.97 49.0468 130.93 49.0518 130.893 49.0643C129.021 46.2534 126.949 43.7748 124.468 41.4783C124.802 41.2268 124.838 41.0697 125.001 40.6943Z" fill="#C3C3C3"/>
<path d="M114.808 35.1543C115.374 35.1048 115.75 35.1594 116.294 35.3244C116.543 35.3997 116.431 35.3771 116.715 35.384L116.895 35.2611C119.355 35.9937 122.972 39.0769 125.001 40.6944C124.838 41.0697 124.802 41.2269 124.468 41.4783C123.747 40.8367 123.003 40.2224 122.236 39.6353C121.47 39.0483 120.682 38.49 119.874 37.9606C119.065 37.4315 118.238 36.9327 117.393 36.4643C116.548 35.9959 115.686 35.5592 114.808 35.1543Z" fill="#C3C3C3"/>
<path d="M105.311 31.5352C108.387 32.0709 114.393 33.4419 116.895 35.2609L116.715 35.3839C116.431 35.3769 116.543 35.3996 116.294 35.3242C115.75 35.1592 115.374 35.1047 114.807 35.1541C110.866 33.6527 107.899 32.7994 103.697 32.1657C103.93 32.07 104.104 32.0048 104.358 31.9831C104.628 31.96 104.852 31.9156 105.117 31.8541L105.311 31.5352Z" fill="#C3C3C3"/>
<path d="M39.6064 88.3784C39.925 88.4219 40.2218 88.4468 40.5445 88.4487C41.678 90.7641 42.4616 93.2723 43.5723 95.6173C44.355 97.2703 45.501 98.7833 46.2354 100.444L45.908 100.548C45.7387 100.905 45.8098 101.093 45.8549 101.48C44.1136 98.8873 42.5714 95.8392 41.4008 92.9478C40.7989 91.4607 40.3711 89.7832 39.6064 88.3784Z" fill="#C3C3C3"/>
<path d="M91.1802 6.60255C95.6604 5.68129 103.787 5.67851 108.287 6.59932C107.98 6.94323 107.979 6.90856 107.524 6.93815C106.559 7.00101 105.575 6.8517 104.617 6.99546C103.137 7.00471 101.65 6.86049 100.168 6.84801C98.3546 6.83368 96.5436 6.95802 94.7311 6.99362C93.6958 6.83922 91.9639 7.28992 91.1802 6.60255Z" fill="#C3C3C3"/>
<path d="M127.229 12.2168C131.424 14.2082 135.254 16.6771 138.943 19.4783C138.794 19.7825 138.704 20.0104 138.399 20.192C136.152 18.5159 133.879 16.8555 131.456 15.4364C129.645 14.3755 127.748 13.4787 125.904 12.4784C126.205 12.4659 126.499 12.4558 126.799 12.4877L127.019 12.5131L127.229 12.2168Z" fill="#C3C3C3"/>
<path d="M45.8548 101.48C45.8097 101.093 45.7385 100.906 45.9078 100.548L46.2353 100.444C47.9617 103.02 49.6402 105.586 51.6438 107.964C52.8744 109.425 54.2971 110.731 55.5078 112.197C55.1534 112.205 54.9292 112.221 54.5943 112.358L54.5087 112.519C51.2703 109.502 48.1626 105.246 45.8548 101.48Z" fill="#C3C3C3"/>
<path d="M87.6328 33.1069C93.3539 31.0882 99.3322 30.8053 105.311 31.5357L105.117 31.8546C104.852 31.9161 104.629 31.9605 104.358 31.9836C104.104 32.0053 103.93 32.0705 103.697 32.1662C98.8424 31.7612 94.2901 32.1431 89.5699 33.3759C88.9667 33.3676 88.1026 33.4896 87.6328 33.1069Z" fill="#C3C3C3"/>
<path d="M87.6327 33.1064C88.1024 33.4892 88.9666 33.3672 89.5698 33.3755C83.5404 35.2083 78.6579 38.1445 73.9786 42.3048C73.6781 42.3806 73.3828 42.4587 73.0907 42.5637L72.8601 42.6478L72.6289 42.4666C75.8892 38.4274 82.6948 34.6642 87.6327 33.1064Z" fill="#C3C3C3"/>
<path d="M75.6747 125.729C82.8692 128.767 90.1255 129.995 97.873 130.557C96.9177 130.707 94.7378 130.211 94.0606 130.749L93.8941 131.065C93.0811 131.149 92.1072 130.941 91.2952 130.839C85.6406 130.125 80.2437 128.474 74.9673 126.374C75.1975 125.978 75.2454 125.875 75.6747 125.729Z" fill="#C3C3C3"/>
<path d="M144.771 24.7275C148.746 28.4385 152.093 33.2815 154.75 37.9794C155.1 38.5988 155.848 39.6268 155.943 40.3221C155.97 40.519 155.906 40.7159 155.848 40.9008L155.667 40.9812C154.789 40.4529 153.252 37.1353 152.611 36.0957C150.324 32.3871 147.553 29.2229 144.733 25.9257C144.703 25.603 144.637 25.2785 144.587 24.9577L144.771 24.7275Z" fill="#C3C3C3"/>
<path d="M108.287 6.59912C114.382 7.10714 121.758 9.53165 127.229 12.2164L127.019 12.5127L126.799 12.4873C126.499 12.4554 126.205 12.4656 125.904 12.478C124.745 12.2594 123.297 11.4315 122.164 10.9868C120.562 10.3705 118.936 9.82348 117.287 9.34582C114.593 8.53565 111.853 7.9358 109.067 7.54627C107.63 7.34381 106.16 7.27031 104.735 7.01746L104.617 6.99527C105.575 6.85151 106.559 7.00082 107.524 6.93795C107.979 6.90837 107.98 6.94304 108.287 6.59912Z" fill="#C3C3C3"/>
<path d="M58.1048 114.694C63.4719 119.16 69.1576 123.087 75.6749 125.729C75.2457 125.875 75.1978 125.978 74.9675 126.374C68.8204 123.827 63.2701 120.169 58.1871 115.934C58.2057 115.554 58.1187 115.342 57.9625 115.007L57.9048 114.887L58.1048 114.694Z" fill="#C3C3C3"/>
<path d="M41.7188 43.9987C42.4327 41.0621 47.2231 33.7238 49.2211 31.0816C49.6989 30.4449 50.1888 29.8175 50.6908 29.1993C51.1928 28.5811 51.7066 27.9728 52.2321 27.3743C52.7573 26.7759 53.2941 26.1876 53.8423 25.6094C54.3904 25.031 54.9495 24.4634 55.5194 23.9065C56.0893 23.3496 56.6697 22.8039 57.2607 22.2692C57.8516 21.7342 58.4527 21.2108 59.0638 20.6989C59.6749 20.1871 60.2957 19.6869 60.926 19.1985C61.5564 18.71 62.1959 18.2339 62.8445 17.7701C63.4932 17.306 64.1507 16.8544 64.817 16.4153C65.483 15.9764 66.1572 15.5504 66.8397 15.1371C67.5221 14.7236 68.2123 14.3233 68.9102 13.9362C69.6082 13.5491 70.3133 13.1755 71.0255 12.8152C71.738 12.455 72.457 12.1083 73.1826 11.7752C73.9081 11.4423 74.6398 11.1234 75.3778 10.8183C76.1157 10.5132 76.8592 10.2222 77.6083 9.94511C78.3575 9.66838 79.1117 9.40597 79.871 9.1579C82.476 8.30597 85.2316 7.49518 87.9506 7.11475C88.6989 7.73278 89.5821 7.36899 90.4834 7.49749C87.6203 8.09518 84.7591 8.55882 81.9532 9.4089C81.5167 9.53926 81.0816 9.67424 80.6482 9.81384C80.2147 9.95374 79.7828 10.0983 79.3524 10.2474C78.9224 10.3963 78.4939 10.5501 78.0669 10.7088C77.64 10.8672 77.2149 11.0302 76.7917 11.1978C76.3681 11.3655 75.9466 11.5377 75.5271 11.7146C75.1076 11.8912 74.6901 12.0724 74.2746 12.2582C73.8588 12.4444 73.4453 12.6348 73.0342 12.8296C72.6227 13.0243 72.2135 13.2236 71.8064 13.4273C71.3996 13.6313 70.9949 13.8394 70.5925 14.0518C70.19 14.2644 69.7899 14.4813 69.3921 14.7026C68.9946 14.9239 68.5994 15.1493 68.2066 15.3789C67.814 15.6088 67.424 15.8428 67.0364 16.081C66.6488 16.3196 66.2639 16.5621 65.8816 16.8086C65.4993 17.0552 65.1198 17.3059 64.743 17.5607C64.3666 17.8156 63.9928 18.0746 63.6217 18.3378C63.2506 18.6006 62.8825 18.8677 62.5176 19.1388C62.1523 19.4097 61.7902 19.6846 61.4311 19.9635C61.0721 20.2424 60.7161 20.5251 60.3633 20.8117C60.0101 21.0983 59.6604 21.3886 59.314 21.6826C58.9674 21.9769 58.6242 22.2749 58.2843 22.5766C57.9445 22.8783 57.6079 23.1835 57.2746 23.4923C56.9413 23.8014 56.6115 24.1139 56.2854 24.4298C55.9589 24.746 55.6359 25.0657 55.3166 25.389C54.9972 25.7119 54.6814 26.0384 54.3692 26.3685C54.0573 26.6985 53.7488 27.0318 53.4437 27.3683C53.1389 27.7051 52.8378 28.0452 52.5405 28.3885C52.2431 28.7315 51.9496 29.0779 51.66 29.4276C51.3701 29.7771 51.0843 30.1298 50.8024 30.4857C50.5203 30.8414 50.2421 31.2002 49.9681 31.5623C49.694 31.9241 49.4239 32.2888 49.1579 32.6565C48.8918 33.0241 48.6298 33.3947 48.3719 33.7682C48.1139 34.1414 47.8601 34.5175 47.6105 34.8965C46.3008 36.8907 45.0586 38.9583 43.9935 41.093C43.4061 42.2704 42.9252 43.5171 42.3103 44.6764C41.9629 44.5331 41.9085 44.314 41.7188 43.9987Z" fill="#C3C3C3"/>
<path d="M112.848 129.179C113.614 128.936 114.428 128.782 115.21 128.596L115.353 128.964C115.822 129.136 116.301 129.013 116.787 129.012C116.057 129.281 115.353 129.464 114.592 129.621C114.544 129.535 114.515 129.471 114.441 129.397C114.091 129.047 113.306 129.167 112.848 129.179Z" fill="#C3C3C3"/>
<path d="M86.5889 103.748C86.9237 103.637 86.9126 103.536 87.1 103.253L87.5953 103.19L88.6157 103.572C88.7846 104.055 89.0776 104.285 89.4566 104.618C88.4757 104.472 87.499 104.133 86.5889 103.748Z" fill="#C3C3C3"/>
<path d="M103.304 130.435C104.668 130.231 106.099 130.225 107.48 130.05C109.283 129.823 111.052 129.429 112.848 129.178C113.306 129.166 114.091 129.047 114.441 129.397C114.515 129.471 114.544 129.534 114.592 129.621C111.533 130.352 108.22 131.039 105.07 131.147L105.331 130.807L105.278 130.599C104.774 130.365 103.883 130.495 103.304 130.435Z" fill="#C3C3C3"/>
<path d="M67.707 88.4536C68.0814 88.5863 68.2698 88.7744 68.54 89.0481L68.773 89.0712L68.927 88.8946L69.0967 89.0888C70.4478 90.6428 71.584 92.3569 73.0007 93.8689C76.5526 97.6589 82.5704 101.793 87.5952 103.19L87.0999 103.253C86.9125 103.536 86.9236 103.637 86.5888 103.748C85.8158 103.465 85.0527 103.157 84.2996 102.824C83.5468 102.491 82.8057 102.135 82.0765 101.754C81.3469 101.373 80.6306 100.969 79.9277 100.542C79.2248 100.114 78.5368 99.6648 77.8637 99.1927C77.1902 98.7205 76.533 98.2272 75.8921 97.7125C75.2513 97.1979 74.6279 96.6631 74.022 96.1081C73.4162 95.553 72.8292 94.9789 72.2612 94.3857C71.6932 93.7925 71.1451 93.1815 70.6171 92.5529C69.5506 91.2979 68.4405 89.9337 67.707 88.4536Z" fill="#C3C3C3"/>
<path d="M130.709 88.4287L130.796 89.1457C131.064 89.1184 131.21 89.0495 131.453 88.94C126.648 96.8856 117.767 102.832 108.794 105.023C104.012 106.191 97.6794 106.69 92.8745 105.446C93.6996 105.362 94.5368 105.504 95.3455 105.417C95.6688 105.382 95.6781 105.312 95.8771 105.071C98.4426 105.328 101.312 105.319 103.876 105.054L103.951 105.048C105.502 104.635 107.188 104.506 108.769 104.124C117.396 102.036 126.086 96.0295 130.709 88.4287ZM103.876 105.054C104.068 105.311 104.078 105.366 104.412 105.421C104.982 105.514 105.684 105.384 106.259 105.331C105.49 105.216 104.727 105.111 103.951 105.048L103.876 105.054Z" fill="#C3C3C3"/>
<path d="M103.875 105.053L103.951 105.048C104.727 105.111 105.489 105.216 106.259 105.331C105.684 105.383 104.981 105.514 104.411 105.42C104.078 105.365 104.068 105.311 103.875 105.053Z" fill="#C3C3C3"/>
<path d="M158.852 88.4043C159.16 89.2114 158.528 89.7582 158.981 90.5556C153.417 105.818 141.202 118.62 126.48 125.482C124.117 126.584 119.192 128.75 116.787 129.011C116.301 129.012 115.822 129.135 115.353 128.963L115.21 128.595C117.134 128.091 119.03 127.501 120.899 126.824C122.768 126.147 124.602 125.386 126.401 124.541C126.871 124.318 127.339 124.089 127.803 123.854C128.268 123.619 128.73 123.379 129.188 123.132C129.647 122.886 130.102 122.635 130.555 122.377C131.007 122.12 131.456 121.857 131.902 121.588C132.347 121.32 132.79 121.046 133.228 120.767C133.668 120.487 134.103 120.202 134.535 119.912C134.967 119.622 135.395 119.327 135.82 119.026C136.244 118.726 136.665 118.42 137.081 118.109C137.498 117.798 137.911 117.482 138.32 117.161C138.729 116.839 139.134 116.513 139.535 116.182C139.936 115.851 140.332 115.515 140.725 115.174C141.117 114.833 141.506 114.488 141.889 114.137C142.273 113.787 142.653 113.431 143.027 113.071C143.402 112.712 143.773 112.348 144.139 111.979C144.505 111.61 144.866 111.236 145.223 110.859C145.579 110.481 145.931 110.098 146.278 109.712C146.625 109.325 146.967 108.935 147.304 108.54C147.642 108.145 147.974 107.746 148.302 107.343C148.629 106.94 148.951 106.533 149.269 106.121C149.586 105.71 149.898 105.296 150.205 104.877C150.512 104.458 150.813 104.036 151.11 103.61C151.406 103.183 151.697 102.754 151.983 102.32C152.268 101.887 152.548 101.45 152.823 101.01C153.098 100.57 153.367 100.126 153.631 99.6795C153.895 99.2327 154.153 98.7826 154.405 98.3293C154.658 97.8763 154.904 97.4201 155.145 96.9606C155.387 96.5014 155.622 96.0393 155.852 95.5743C156.081 95.109 156.305 94.641 156.523 94.1704C156.741 93.6999 156.953 93.2267 157.159 92.7509C157.365 92.275 157.565 91.7968 157.759 91.316C157.954 90.8353 158.142 90.3522 158.324 89.8669C158.506 89.3815 158.682 88.894 158.852 88.4043Z" fill="#C3C3C3"/>
<path d="M88.6157 103.572C91.0537 104.264 93.3996 104.606 95.8772 105.071C95.6781 105.311 95.6688 105.382 95.3456 105.417C94.5368 105.504 93.6996 105.362 92.8745 105.446C91.8509 105.373 90.3589 105.083 89.4566 104.618C89.0775 104.285 88.7846 104.055 88.6157 103.572Z" fill="#C3C3C3"/>
<path d="M39.9654 48.4084C40.2775 48.3262 40.4551 48.2786 40.6789 48.0359C40.7351 47.9749 40.7891 47.9115 40.8444 47.8491L41.004 47.9679C40.8826 48.3419 40.6998 48.628 40.8272 49.0084C43.8763 49.2405 47.0631 49.0547 50.1244 49.0519L68.2531 49.0454L130.893 49.0644C130.93 49.0519 130.97 49.0468 131.004 49.0269C131.23 48.8975 131.343 48.775 131.605 48.6909C131.669 48.7334 131.731 48.7787 131.796 48.8189C132.144 49.0325 132.549 49.0431 132.947 49.0579C137.511 49.2252 142.17 49.0427 146.744 49.045L175.687 49.0496C178.451 49.0477 186.912 48.6964 189.186 49.4074C190.519 49.8243 191.928 51.4182 192.311 52.737C192.916 54.825 192.609 57.9526 192.609 60.1737L192.607 69.6207L192.609 78.4835C192.608 80.1582 192.698 81.8972 192.535 83.5632C192.515 83.7712 192.484 83.9775 192.441 84.1821C192.397 84.3867 192.343 84.5883 192.276 84.7867C192.21 84.9849 192.132 85.1787 192.043 85.3683C191.954 85.5578 191.855 85.7416 191.745 85.9197C191.007 87.098 189.684 88.0623 188.3 88.3188C186.857 88.5869 185.221 88.4533 183.756 88.4482L176.465 88.4237L165.796 88.4288C163.804 88.4302 161.747 88.531 159.761 88.3595L158.981 90.5557C158.528 89.7583 159.16 89.2114 158.852 88.4043C155.834 88.4482 132.336 88.2643 131.935 88.4339C131.916 88.4422 131.66 88.6835 131.653 88.6909C131.586 88.7612 131.513 88.861 131.453 88.9396C131.21 89.0492 131.064 89.118 130.796 89.1453L130.709 88.4284C110.419 88.1603 90.1105 88.6082 69.8172 88.4043C69.5056 88.4011 69.1828 88.31 68.9414 88.5157L68.927 88.8948L68.7731 89.0713L68.5401 89.0482C68.2699 88.7746 68.0815 88.5864 67.7071 88.4538C62.066 88.2485 56.3575 88.4297 50.7108 88.4325L44.3973 88.4205C43.1266 88.4113 41.8062 88.3239 40.5444 88.4487C40.2217 88.4469 39.9249 88.4219 39.6064 88.3784C38.3567 88.5199 37.0246 88.4237 35.7624 88.4233L28.3633 88.4251L17.7299 88.4348C15.9175 88.4367 14.0694 88.5231 12.2614 88.4223C11.5021 88.3803 10.6583 88.273 9.96096 87.961C8.73099 87.4114 7.70253 86.3057 7.23675 85.0507C6.9077 84.1641 6.80296 83.1102 6.75296 82.169C6.52 77.7832 6.75417 73.2596 6.74789 68.8626C6.74156 64.4532 6.50511 59.3629 6.77677 55.07C6.84035 54.0655 6.97095 52.9658 7.40683 52.0482C8.01591 50.7664 9.20407 49.6995 10.5746 49.2881C12.544 48.6974 15.3077 49.0473 17.383 49.0491C19.5256 49.0514 39.1348 49.2146 39.6724 48.9729C39.8394 48.898 39.9017 48.5753 39.9654 48.4084ZM13.1461 52.1522C12.16 52.3075 11.3992 52.5544 10.7754 53.3749C10.299 54.0012 10.1692 54.726 10.0941 55.4906C9.94715 56.9874 10.0498 58.5627 10.0543 60.0706L10.0692 68.4369L10.052 77.5197C10.0498 79.1616 9.89883 80.9635 10.1662 82.5846C10.3157 83.491 10.6681 84.2602 11.4622 84.7798C12.1854 85.2531 13.0239 85.3072 13.8637 85.3327C16.0807 85.3992 18.3183 85.3049 20.5367 85.2966L31.9193 85.3086L70.0214 85.3114L121.84 85.3091C130.548 85.3082 139.279 85.445 147.984 85.3012C148.981 85.0493 149.773 84.5732 150.291 83.6598C150.576 83.1559 150.688 82.6585 150.727 82.0849C150.843 80.3362 150.781 78.5491 150.781 76.7963L150.778 67.719C150.777 65.5067 151.064 55.8521 150.57 54.3525C150.313 53.5681 149.815 52.963 149.072 52.5877C148.316 52.2054 147.458 52.1083 146.621 52.0894C138.891 51.916 131.104 52.0898 123.369 52.0926L77.4242 52.0991L35.4847 52.0912C28.0484 52.0926 20.5763 51.9336 13.1461 52.1522Z" fill="#C3C3C3"/>
<path d="M154.553 61.7758C154.593 59.8593 154.073 54.6377 155.393 53.4076C155.878 52.9556 156.575 52.6204 157.237 52.5506C158.563 52.411 160.01 52.5233 161.346 52.5294L169.218 52.5418L180.301 52.5363C182.107 52.5354 183.999 52.4217 185.798 52.5548C186.837 52.6315 187.696 53.06 188.361 53.8657C189.567 55.3274 188.902 60.8665 189.027 62.8015L188.942 63.1699C188.604 63.3442 188.236 63.3322 187.863 63.3428C185.314 63.4158 182.712 63.3012 180.157 63.3012C171.643 63.3003 163.1 63.1556 154.59 63.3622C154.597 62.8311 154.581 62.306 154.553 61.7758Z" fill="white"/>
<path d="M154.553 61.7759C154.581 62.3061 154.597 62.8312 154.59 63.3623C163.101 63.1557 171.643 63.3004 180.157 63.3013C182.712 63.3013 185.314 63.4159 187.863 63.3429C188.236 63.3323 188.604 63.3443 188.942 63.17L189.027 62.8016C189.217 63.6341 189.082 64.6968 189.08 65.5668C189.073 68.3653 188.893 71.2742 189.075 74.0579L154.497 74.0759L154.488 65.6361C154.486 64.4042 154.334 62.98 154.553 61.7759Z" fill="#005BA9"/>
<path d="M154.498 74.0761L189.075 74.0581C189.032 76.3675 189.484 80.9535 188.748 82.9287C188.434 83.7719 187.945 84.2827 187.126 84.6562C186.756 84.8249 186.344 84.9788 185.935 85.0149C184.377 85.1522 182.721 85.0375 181.152 85.0366L171.674 85.032L162.14 85.0394C160.611 85.0412 159.012 85.1484 157.494 85.025C156.937 84.9802 156.324 84.7065 155.804 84.5073C155.385 84.0834 155.01 83.7164 154.806 83.1418C154.146 81.2757 154.487 76.313 154.498 74.0761Z" fill="#E6160B"/>
<path d="M32.0068 64.821C32.538 64.6134 33.0798 64.3097 33.6453 64.558C33.8891 64.6648 33.917 64.7452 34.0742 64.9458C34.0472 65.3369 33.9723 65.6091 33.6551 65.8703C33.4207 66.0631 33.1398 66.1957 32.8673 66.3247C33.0142 65.8906 33.2277 65.5033 33.13 65.0498C32.791 64.8284 32.3998 64.8473 32.0068 64.821Z" fill="#C3C3C3"/>
<path d="M13.7874 56.616C15.1655 56.4893 16.905 56.408 18.2723 56.6081C18.8346 56.69 19.3337 56.8282 19.6857 57.2941C19.6499 57.5188 19.683 57.5364 19.5044 57.7074C18.6225 58.5524 16.5343 58.2755 15.3916 58.2436L15.3883 62.7885C15.4018 63.4453 15.4246 64.1068 15.4092 64.7637C15.3972 65.2929 15.3013 66.0658 14.8269 66.4014C14.5386 66.6057 14.414 66.5604 14.1066 66.4772C13.9572 66.3228 13.8391 66.192 13.7564 65.9909C13.3249 64.9416 13.3462 57.6662 13.7874 56.616Z" fill="#C3C3C3"/>
<path d="M28.2193 59.0336C28.4802 58.0721 28.8779 57.3214 29.7862 56.8342C30.6447 56.3738 31.9614 56.2735 32.8795 56.6063C33.2627 56.745 33.8236 57.0977 34.0157 57.4698C34.1752 57.7781 34.1501 57.8562 34.052 58.1623C33.7846 58.3837 33.5576 58.5496 33.1916 58.5487C32.3181 58.5464 31.5819 57.6029 30.7471 58.3074C30.0983 58.8547 29.8783 59.6318 29.8373 60.4426C29.7825 61.5418 29.6332 63.4758 30.402 64.349C30.8043 64.8057 31.2791 64.8062 31.8419 64.8182L32.0065 64.8205C32.3995 64.8469 32.7907 64.8279 33.1297 65.0494C33.2274 65.5028 33.0139 65.8902 32.8669 66.3242L32.7367 66.3557C31.6354 66.6141 30.4289 66.5766 29.4564 65.9327C28.6653 65.409 28.376 64.6735 28.1867 63.7865C27.8147 62.3475 27.9072 60.4805 28.2193 59.0336Z" fill="#C3C3C3"/>
<path d="M28.2193 59.0342C28.7355 59.7613 28.5276 62.3564 28.4044 63.2675C28.3723 63.5046 28.3323 63.5943 28.1867 63.7871C27.8147 62.3481 27.9072 60.481 28.2193 59.0342Z" fill="#C3C3C3"/>
<path d="M35.6326 56.592C36.7135 56.5421 42.055 56.3155 42.7025 56.7824C42.9624 56.9701 43.0573 57.1869 43.0169 57.5072C43.0113 57.5553 43.001 57.6024 42.9862 57.6487C42.9716 57.6949 42.9527 57.7393 42.9294 57.7818C42.9062 57.8243 42.879 57.8642 42.848 57.9015C42.817 57.9391 42.7828 57.9733 42.7452 58.0041C42.1467 58.49 40.8384 58.2857 40.1017 58.2699C39.9631 60.0806 40.0519 61.9462 40.0552 63.7633C40.0584 64.2959 40.0714 64.8385 40.0296 65.3701C39.9928 65.8393 39.9049 66.1879 39.5301 66.4976C39.1715 66.5886 39.1478 66.602 38.8064 66.468C37.7585 65.3091 38.2306 60.0445 38.259 58.2755C37.5637 58.2806 36.6293 58.3874 35.9642 58.2057C35.6187 58.1109 35.5094 57.9917 35.3247 57.7C35.3024 57.2493 35.4336 56.9909 35.6326 56.592Z" fill="#C3C3C3"/>
<path d="M106.334 71.0119C106.835 70.9176 107.7 71.1741 108.171 71.366C108.609 71.5444 108.83 71.7811 109.007 72.2068C108.995 72.5747 109.017 72.5886 108.774 72.8604C107.999 73.049 107.207 72.6718 106.413 72.7407C105.92 72.7832 105.502 72.994 105.213 73.3985C104.466 74.4446 104.624 76.8506 104.893 78.064C104.988 78.4929 105.17 79.0139 105.598 79.2168C106.127 79.4678 107.123 79.2705 107.665 79.1498C108.115 79.05 108.409 78.9908 108.866 79.0925C108.904 79.1008 108.942 79.111 108.98 79.1207C108.952 79.4309 108.949 79.8566 108.78 80.1275C108.449 80.66 107.932 80.8361 107.347 80.9799C106.354 81.223 105.368 81.1407 104.5 80.5708C103.582 79.9671 103.139 78.9589 102.953 77.9138C102.655 76.233 102.667 73.7618 103.712 72.3427C104.434 71.3613 105.194 71.1741 106.334 71.0119Z" fill="#C3C3C3"/>
<path d="M98.9228 71.0126C99.0381 70.9867 99.0926 70.9678 99.2228 70.9761C99.9437 71.0223 100.915 71.2576 101.391 71.8225C101.62 72.0943 101.665 72.2662 101.655 72.6106C100.789 73.5208 99.3967 72.533 98.3405 72.7137C98.0708 72.8621 97.9419 72.9975 97.8196 73.2837C97.3382 74.4074 97.1894 77.4638 97.6805 78.5852C98.4447 80.3302 100.328 78.6527 101.6 79.2287C101.634 79.2439 101.668 79.2606 101.702 79.2763C101.671 79.5583 101.647 79.8 101.501 80.0492C101.179 80.5969 100.58 80.8369 99.9874 80.9797C99.0126 81.215 98.0094 81.1392 97.1578 80.5775C96.2923 80.0071 95.816 79.0882 95.6188 78.0952C95.2816 76.3969 95.2798 73.8166 96.3202 72.3629C97.0317 71.3681 97.7791 71.1763 98.9228 71.0126Z" fill="#C3C3C3"/>
<path d="M118.841 56.5093C119.601 56.4159 120.706 56.3443 121.407 56.7122C121.895 56.9683 122.195 57.3478 122.343 57.8683C122.297 58.0495 122.311 58.1729 122.151 58.2936C121.374 58.8848 120.265 58.1623 119.423 58.1078C119.175 58.092 118.919 58.1549 118.74 58.3329C117.957 59.1108 118.03 61.7854 118.14 62.8153C118.201 63.3899 118.333 64.2797 118.87 64.6246C119.695 65.1552 121.093 64.4771 121.944 64.2733C122.179 64.5802 122.347 64.8072 122.279 65.213C122.205 65.666 121.713 66.0104 121.326 66.1916C120.434 66.61 119.331 66.6211 118.414 66.2771C118.31 66.2386 118.209 66.1949 118.111 66.1459C118.012 66.0969 117.916 66.0429 117.823 65.9841C117.73 65.9252 117.641 65.8617 117.555 65.7936C117.468 65.7252 117.386 65.6526 117.307 65.5759C117.229 65.4992 117.154 65.4186 117.084 65.3341C117.014 65.2497 116.948 65.1617 116.888 65.0702C116.827 64.979 116.771 64.8848 116.72 64.7878C116.669 64.6907 116.623 64.5911 116.582 64.4891C115.937 62.9008 116.017 59.6734 116.766 58.1244C117.215 57.1967 117.898 56.8356 118.841 56.5093Z" fill="#C3C3C3"/>
<path d="M58.8164 71.1518C59.7898 71.1273 64.391 70.9082 65.0472 71.277C65.3565 71.4509 65.456 71.6399 65.5672 71.9607C65.5244 72.2834 65.5332 72.466 65.2509 72.6832C64.6491 73.1464 63.478 72.9911 62.7645 72.9629C62.7166 75.1572 62.7524 77.3589 62.7385 79.5546C62.6822 79.8338 62.6325 80.1361 62.5101 80.3954C62.3571 80.7204 62.0334 81.1078 61.6776 81.2085C61.4921 81.2612 61.3925 81.1563 61.2321 81.0759C60.2363 79.7326 60.6926 74.7273 60.7028 73.0045C60.2647 73.0119 59.8242 73.0221 59.3866 73.0008C58.7936 72.9717 58.3187 72.9116 57.9104 72.4503C57.7667 72.0703 57.8006 71.915 57.8881 71.535C58.2104 71.2267 58.3862 71.2387 58.8164 71.1518Z" fill="#C3C3C3"/>
<path d="M100.088 56.4035C100.518 56.4128 101.009 56.4188 101.303 56.7803C101.868 57.4755 101.468 58.7125 101.426 59.5209C101.402 59.9781 101.463 60.4852 101.829 60.8088C102.624 61.5123 103.939 61.1656 104.869 61.0219C104.864 59.7951 104.718 58.3108 105.056 57.132C105.177 56.7095 105.328 56.5288 105.709 56.3203C106.083 56.3596 106.215 56.4558 106.505 56.673C107.03 57.9803 106.745 60.9243 106.74 62.4359C106.743 63.2176 106.802 64.0473 106.727 64.823C106.661 65.5076 106.5 66.1445 105.953 66.5929C105.744 66.5841 105.692 66.6276 105.532 66.4644C104.658 65.5732 104.86 63.7006 104.865 62.5348C104.782 62.5621 104.7 62.5903 104.616 62.6171C103.517 62.9656 101.984 63.1501 100.933 62.5626C100.299 62.2085 99.9553 61.6006 99.7916 60.9151C99.5298 59.8182 99.5135 57.3571 100.088 56.4035Z" fill="#C3C3C3"/>
<path d="M110.663 64.5782C111.912 64.5384 113.665 64.2745 114.775 64.9318C114.957 65.2064 115.069 65.3432 114.973 65.6954C114.894 65.9843 114.665 66.2219 114.385 66.3259C113.654 66.5987 110.38 66.5959 109.66 66.3024C109.319 66.1637 109.06 65.9266 108.924 65.5794C108.72 65.0612 108.766 57.5182 108.969 57.0125C109.147 56.8392 109.212 56.7412 109.454 56.658C110.196 56.4037 113.697 56.3307 114.341 56.7527C114.677 56.9723 114.69 57.0633 114.786 57.4276C114.715 57.6513 114.716 57.7965 114.523 57.9504C113.738 58.574 111.75 58.2823 110.752 58.2536L110.655 60.6282C111.801 60.6185 113.163 60.2959 114.212 60.8224C114.494 61.2231 114.416 61.3664 114.388 61.843C114.172 62.1264 114.055 62.2928 113.678 62.3409C113.294 62.3899 112.873 62.352 112.484 62.3487C111.903 62.3714 111.313 62.3363 110.731 62.3224L110.663 64.5782ZM112.484 62.3487C112.873 62.352 113.294 62.3899 113.678 62.3409C114.055 62.2928 114.172 62.1264 114.388 61.843C114.356 61.7885 114.322 61.7349 114.292 61.6794C114.184 61.4792 114.144 61.3327 114.104 61.1127C113.837 61.0392 113.888 61.0068 113.61 61.1325C113.606 61.3956 113.622 61.6489 113.645 61.911C113.45 62.0506 113.399 62.0506 113.171 62.094C112.905 62.1449 112.72 62.2077 112.484 62.3487Z" fill="#C3C3C3"/>
<path d="M112.484 62.3488C112.72 62.2078 112.905 62.1449 113.171 62.0941C113.399 62.0506 113.45 62.0506 113.645 61.911C113.622 61.6489 113.606 61.3956 113.61 61.1326C113.888 61.0068 113.837 61.0392 114.104 61.1127C114.144 61.3327 114.184 61.4793 114.292 61.6794C114.322 61.7349 114.356 61.7885 114.388 61.843C114.172 62.1264 114.055 62.2928 113.678 62.3409C113.294 62.3899 112.873 62.352 112.484 62.3488Z" fill="#C3C3C3"/>
<path d="M34.1363 70.9062C34.28 70.9252 34.4238 70.9446 34.5656 70.9765C36.0725 71.3177 34.9251 73.9077 35.5339 74.9348C35.852 75.1548 36.0018 75.1677 36.3734 75.1821C37.3529 74.7513 38.0598 72.7987 38.6649 71.9056C39.0137 71.3902 39.2602 71.0657 39.8909 70.9372C40.2467 71.1013 40.2955 71.1411 40.5183 71.4614C40.7578 72.8653 39.0077 74.8691 38.3128 76.0613C38.9719 77.3158 39.8881 78.5223 40.6508 79.7288C40.7048 80.0898 40.662 80.4199 40.435 80.7166C40.2225 80.9949 40.0197 81.0605 39.69 81.1146C38.2026 80.5927 37.724 77.6875 36.333 76.7172C36.1423 76.5841 36.0846 76.5615 35.8646 76.5943C34.9568 77.4508 35.6656 79.5633 35.0791 80.688C34.9107 81.0111 34.7809 81.0906 34.4452 81.208C34.1028 81.1396 33.9587 81.0707 33.6982 80.8387C33.275 79.8897 33.5075 74.2349 33.5127 72.7969C33.5159 71.9445 33.4931 71.5391 34.1363 70.9062Z" fill="#C3C3C3"/>
<path d="M124.261 56.4474C124.694 56.4067 125.072 56.4201 125.429 56.6878C126.048 57.6123 125.656 58.8331 125.763 59.8912C125.804 60.2943 125.875 60.5966 126.207 60.8619C127.763 60.7528 128.555 57.279 129.95 56.5435C130.241 56.3905 130.403 56.403 130.709 56.4821C130.866 56.6531 131.01 56.7497 131.062 56.9845C131.281 57.9608 129.237 60.6054 128.675 61.485C129.475 62.6171 130.364 63.7806 130.946 65.0397C131.069 65.349 131.128 65.582 131.008 65.9115C130.887 66.2444 130.709 66.3641 130.409 66.5263C128.538 66.5055 128.526 63.0724 126.908 62.3887C126.603 62.2602 126.361 62.3453 126.073 62.453C125.524 63.0826 125.752 64.2345 125.728 65.0222C125.712 65.5769 125.713 66.0932 125.283 66.5018C124.934 66.6442 124.783 66.6137 124.428 66.5458C124.302 66.4057 124.217 66.2772 124.157 66.0974C123.716 64.7767 123.65 57.6021 124.261 56.4474Z" fill="#C3C3C3"/>
<path d="M61.89 56.4243C61.9556 56.4234 62.0216 56.4211 62.0872 56.422C62.4905 56.4294 62.8416 56.4729 63.0988 56.8131C63.6816 57.5855 63.3225 59.661 63.2634 60.6035L66.9451 60.6211C66.86 59.753 66.813 58.8059 66.8869 57.9354C66.9497 57.1991 67.1409 56.7678 67.7125 56.3037C67.9176 56.2653 67.966 56.2071 68.1604 56.3536C68.4673 56.5847 68.5882 57.243 68.638 57.5975C68.8287 58.9593 68.8575 64.6769 68.5794 65.8755C68.5199 66.1325 68.3669 66.3558 68.2134 66.5661C67.8274 66.5449 67.6004 66.5356 67.2753 66.2966C66.5967 65.2718 66.8642 63.5352 66.8693 62.3532L63.3602 62.3684C63.3239 63.3886 63.6346 65.4974 62.916 66.2874C62.677 66.55 62.5263 66.5481 62.2007 66.5689C61.9212 66.4362 61.7631 66.3133 61.6575 66.0091C61.244 64.8174 61.3408 58.498 61.5891 57.1741C61.6398 56.9055 61.7589 56.6619 61.89 56.4243Z" fill="#C3C3C3"/>
<path d="M23.0549 56.354C23.386 56.4224 23.6911 56.483 23.9288 56.746C24.9343 57.8572 26.95 64.1189 26.8188 65.6259C26.7928 65.9235 26.7049 66.2115 26.444 66.3918C26.1305 66.6081 26.0049 66.5767 25.6608 66.5087C25.0138 65.9582 24.912 65.1109 24.7455 64.3251L22.8316 64.3144L21.5531 64.3131C21.3936 65.0101 21.2164 65.7765 20.7941 66.3622C20.4434 66.5601 20.4313 66.5406 20.029 66.4778C19.7746 66.2781 19.6471 66.2046 19.5323 65.8921C19.1132 64.7508 21.2424 59.0032 21.7945 57.7426C22.1051 57.0321 22.32 56.642 23.0549 56.354ZM23.0237 59.6036C22.7126 60.3982 21.9619 61.7771 22.2614 62.5999C22.6005 62.7553 22.8028 62.6887 23.1688 62.6517C23.5372 62.6799 23.7278 62.777 24.0339 62.5468C24.159 61.7355 23.7981 60.6271 23.3539 59.942C23.2576 59.7932 23.1642 59.703 23.0237 59.6036Z" fill="#C3C3C3"/>
<path d="M68.9111 70.928C69.2464 70.9224 69.5329 71.0153 69.8008 71.2206C70.8412 72.017 72.7267 78.3993 72.8383 79.7473C72.8704 80.1351 72.836 80.5997 72.5239 80.8798C72.2983 81.0823 71.9579 81.1534 71.6677 81.0864C71.0407 80.9422 71.0654 79.6017 70.6728 79.1528C70.4203 78.8635 70.131 78.9346 69.7785 78.9194C69.0515 78.93 68.3232 78.894 67.5963 78.8699C67.4195 79.4704 67.2614 80.2229 66.8954 80.7365C66.6814 81.0365 66.5475 81.1045 66.195 81.183C65.9196 81.079 65.7168 80.9611 65.5848 80.6819C65.1997 79.8675 65.8522 78.0226 66.0926 77.1957C66.5131 75.7488 67.3777 72.4946 68.2474 71.4078C68.4158 71.1975 68.6776 71.056 68.9111 70.928ZM69.006 74.2206C68.7362 74.9787 68.1395 76.0594 68.18 76.8453C68.3297 77.106 68.3516 77.21 68.6804 77.259C68.9618 77.301 69.3041 77.259 69.5906 77.2497L70.018 77.1614C70.1971 76.5684 69.6269 74.9302 69.2785 74.43C69.2022 74.3204 69.1236 74.2696 69.006 74.2206Z" fill="#C3C3C3"/>
<path d="M45.1554 70.9189C45.6694 70.9661 46.0335 71.0729 46.3986 71.4593C47.16 72.265 49.1747 78.9154 49.1301 80.0905C49.1147 80.4954 49.0185 80.7399 48.7083 81.0168C48.3427 81.1144 48.2576 81.1356 47.893 81.0487C47.3321 80.543 47.4214 79.7133 46.9795 79.1812C46.714 78.8614 46.4089 78.9339 46.0321 78.9168C45.3159 78.9247 44.5978 78.89 43.882 78.8688C43.7774 79.325 43.6746 79.7808 43.4997 80.2162C43.3104 80.6873 43.1421 80.9433 42.6649 81.1393C42.3561 81.0691 42.183 80.9831 41.9807 80.7446C41.7133 80.4298 41.7375 80.0748 41.7928 79.6925C42.0579 77.8527 43.6881 71.9854 45.1554 70.9189ZM45.441 74.1298C44.9159 74.9248 44.5587 76.1216 44.4062 77.0632L44.5001 77.2282L45.614 77.2518L46.2214 77.2088C46.4349 76.9042 46.3656 76.6074 46.3056 76.245C46.2047 75.6344 45.7973 74.6373 45.441 74.1298Z" fill="#C3C3C3"/>
<path d="M135.224 56.4662C135.258 56.4616 135.291 56.4555 135.325 56.4518C135.827 56.4015 136.331 56.395 136.719 56.7694C137.708 57.7244 139.483 63.8396 139.503 65.2439C139.51 65.7399 139.453 66.1111 139.082 66.4739C138.711 66.5636 138.636 66.5766 138.272 66.4739C137.838 66.038 137.705 65.2055 137.523 64.6268C137.222 64.3388 137.216 64.3573 136.794 64.3286C135.96 64.3332 135.128 64.3078 134.294 64.2792C134.115 65.0192 134.032 66.0334 133.343 66.4725C132.961 66.5437 132.808 66.4772 132.461 66.3376C132.324 66.1582 132.26 66.1129 132.22 65.8799C131.935 64.208 134.225 57.9408 135.224 56.4662ZM135.751 59.5887C135.504 60.2691 134.682 61.8472 134.957 62.5244C135.02 62.6816 135.058 62.6788 135.262 62.7214C135.43 62.756 135.715 62.6913 135.89 62.6728L136.789 62.7519C137.003 62.3405 136.357 60.5626 136.192 60.0893C136.102 59.8323 135.977 59.7213 135.751 59.5887Z" fill="#C3C3C3"/>
<path d="M79.4557 71.1444C80.3877 71.119 81.3416 71.0598 82.2723 71.1023C83.5117 71.1587 84.2503 71.5928 85.0642 72.4863C85.2181 73.1034 85.3312 73.7506 85.3218 74.3876C85.3102 75.1692 85.1251 75.962 84.5284 76.5125C83.4792 77.4809 81.9551 77.334 80.6407 77.2656C80.6463 78.1868 80.8426 79.9401 80.3524 80.719C80.191 80.9765 79.9533 81.0699 79.6757 81.1471C79.4566 81.0777 79.3822 81.0865 79.2236 80.9053C78.9645 80.609 78.8738 80.1884 78.8185 79.8098C78.6557 78.6893 78.6097 72.6957 78.8469 71.6658C78.9292 71.308 79.152 71.2886 79.4557 71.1444ZM80.6523 72.98C80.6291 73.8777 80.6216 74.7791 80.5672 75.6745C81.4351 75.6699 82.2862 75.6939 83.1252 75.4369C83.434 74.8628 83.6461 74.3326 83.5071 73.6775C83.2792 73.3124 83.0355 73.1603 82.6267 73.0521C82.0202 72.8913 81.2784 72.968 80.6523 72.98Z" fill="#C3C3C3"/>
<path d="M44.856 56.591C46.3294 56.5189 48.9144 56.2387 50.1273 57.1693C50.7733 57.6643 51.1012 58.4478 51.1738 59.2401C51.2547 60.1212 51.0449 61.0434 50.4496 61.7197C49.5078 62.7912 48.1428 62.8124 46.8247 62.8707C46.7921 62.867 46.7596 62.8554 46.7266 62.8596C45.9666 62.9576 46.6838 65.6252 45.8857 66.4323C45.5392 66.5738 45.3727 66.5886 45.0034 66.5317C44.9085 66.4185 44.8997 66.4194 44.8243 66.2636C44.2969 65.1759 44.3779 57.6911 44.856 56.591ZM46.3861 58.2435C46.3671 59.1847 46.3159 60.1383 46.3517 61.0785C47.2358 61.0901 48.1153 61.1317 48.9604 60.8257C49.2125 60.3768 49.439 59.7888 49.3269 59.2651C49.2497 58.9059 48.9771 58.6753 48.6618 58.5209C47.9446 58.17 47.1633 58.2371 46.3861 58.2435Z" fill="#C3C3C3"/>
<path d="M51.3426 71.139C52.9164 71.1075 55.3368 70.7604 56.5306 71.9742C57.1474 72.602 57.365 73.4895 57.3283 74.3451C57.2925 75.1864 56.9869 76.0351 56.3325 76.5954C55.2833 77.4945 53.8787 77.3715 52.5965 77.2536C52.4141 78.1985 52.7606 79.4983 52.4355 80.3724C52.2769 80.7986 52.0351 80.9535 51.6333 81.1301C51.2942 81.0704 51.2263 81.0455 51.0091 80.7487C50.518 80.0775 50.4845 72.4314 50.7496 71.6058C50.8528 71.285 51.0593 71.2642 51.3426 71.139ZM52.5579 72.9311L52.5048 75.6921C53.4057 75.6681 54.2582 75.6866 55.1121 75.363C55.3614 75.0075 55.6074 74.2929 55.5265 73.8667C55.467 73.5528 55.2061 73.3555 54.9345 73.2302C54.1731 72.8793 53.3671 72.9954 52.5579 72.9311Z" fill="#C3C3C3"/>
<path d="M116.135 72.7557C116.204 72.3092 116.246 71.6491 116.515 71.2751C116.727 70.9793 116.892 70.9604 117.221 70.8979C117.341 70.953 117.444 70.9909 117.542 71.0884C118.44 71.981 118.146 77.1619 118.123 78.5893C118.108 79.5088 118.203 80.4088 117.493 81.0878C117.002 81.1035 116.851 81.0666 116.493 80.7481C115.865 79.316 116.276 76.7256 116.27 75.1331C115.354 76.1718 114.003 77.2622 113.287 78.4239C112.761 79.2781 112.421 80.5465 111.513 81.0596C111.168 81.0615 111.135 81.0698 110.853 80.878C110.286 79.3336 110.491 74.155 110.634 72.4192C110.69 71.7258 110.753 71.3944 111.304 70.9317C111.553 70.9585 111.881 71.0052 112.059 71.1961C112.819 72.0092 112.4 75.8075 112.366 77.0103C113.639 75.606 114.835 74.1383 116.135 72.7557Z" fill="#C3C3C3"/>
<path d="M120.797 70.9062C121.222 70.9511 121.384 71.013 121.71 71.2904C122.322 72.6083 121.971 75.5094 121.942 77.02C122.919 75.8824 124.708 74.1587 125.431 72.9758C125.829 72.324 125.797 71.418 126.471 70.952C126.826 70.9469 126.995 70.9927 127.282 71.2137C127.511 71.3898 127.552 71.6639 127.588 71.9338C127.792 73.4274 127.847 78.9799 127.527 80.3496C127.456 80.6524 127.287 80.8641 127.097 81.104C126.706 81.1082 126.342 81.1461 126.078 80.8114C125.459 80.0256 125.806 76.1792 125.834 75.0735C124.544 76.4505 123.316 77.8987 122.058 79.3058L122.033 79.4658L121.992 79.7205C121.954 79.9669 121.935 80.2387 121.855 80.4758C121.737 80.8266 121.534 80.9399 121.23 81.1193C120.898 81.1151 120.813 81.1253 120.565 80.8701C119.775 80.0598 120.102 74.4725 120.132 73.1306C120.152 72.2551 120.12 71.552 120.797 70.9062Z" fill="#C3C3C3"/>
<path d="M92.1956 62.4635C93.1853 61.3592 95.694 58.9869 96.0586 57.6482C96.1809 57.1989 96.2819 56.6438 96.7683 56.4427C97.1134 56.3003 97.2441 56.3784 97.5469 56.5282C97.7353 56.7931 97.8669 57.0242 97.912 57.351C98.0738 58.5349 98.079 64.3994 97.8864 65.5819C97.8176 66.0021 97.6348 66.2692 97.372 66.5947C97.0795 66.5896 96.8697 66.5595 96.593 66.4648C95.5693 65.3974 96.1572 62.2657 96.0712 60.8142L96.0605 60.6543C94.8736 61.7484 93.4248 63.2748 92.5532 64.6278C92.1174 65.3041 92.3732 66.0215 91.631 66.529C91.4496 66.5572 91.3282 66.6192 91.158 66.5249C90.844 66.3524 90.6724 65.9956 90.5724 65.6656C90.2273 64.5284 90.2803 58.4803 90.5064 57.2401C90.558 56.9549 90.6947 56.6974 90.8389 56.4487C91.2812 56.4445 91.6161 56.4159 92.0109 56.6502C92.5449 57.4721 92.243 61.3398 92.1956 62.4635Z" fill="#C3C3C3"/>
<path d="M142.944 56.6291C143.962 56.5256 146.528 56.2648 147.374 56.8491C147.889 58.1513 147.659 62.3222 147.622 63.8818C147.602 64.7449 147.587 65.9241 146.921 66.5541C146.797 66.5661 146.543 66.6105 146.413 66.5781C145.303 66.3003 146.1 63.8633 145.597 62.8339C145.182 62.5667 144.899 62.6527 144.412 62.6647C143.731 63.7376 143.293 65.307 142.443 66.219C142.204 66.4751 142.053 66.5157 141.712 66.5476C141.332 66.4159 141.27 66.3845 141.009 66.0831C140.692 64.9233 141.94 63.2166 142.503 62.1923C141.763 61.7398 141.352 61.4166 141.065 60.5606C140.776 59.6994 140.804 58.7531 141.224 57.9382C141.637 57.1394 142.114 56.9125 142.944 56.6291ZM143.438 58.3038C143.083 58.6482 142.75 59.1682 142.743 59.6818C142.738 59.9883 142.926 60.2411 143.164 60.4122C143.691 60.7898 144.135 60.8055 144.766 60.8009L145.425 60.7968L145.685 60.732C145.911 60.0169 145.801 58.9921 145.804 58.2359C145.022 58.2516 144.215 58.2308 143.438 58.3038Z" fill="#C3C3C3"/>
<path d="M84.002 62.4162C84.8117 60.6532 85.5679 58.469 86.7232 56.9246C87.0162 56.5336 87.2697 56.3015 87.7594 56.228C87.972 56.3588 88.0594 56.4319 88.1496 56.6676C88.5105 57.6134 88.5691 65.4712 88.0687 66.2866C87.879 66.5954 87.8194 66.5959 87.4873 66.655C87.2804 66.5672 87.0822 66.4909 86.9357 66.3102C86.5162 65.7943 86.6581 64.7034 86.6679 64.0706C86.6824 62.8512 86.6868 61.6318 86.6809 60.4123C86.0497 61.4894 85.4958 63.913 84.5187 64.6026C84.3587 64.7159 84.1726 64.788 83.9773 64.7561C82.5941 64.5296 82.1825 61.8264 81.4365 60.8903L81.2914 60.9754C80.9147 62.2304 81.4281 63.9412 81.2928 65.2808C81.2412 65.7888 81.1375 66.153 80.7245 66.4803C80.3873 66.5566 80.3589 66.5746 80.0436 66.4438C79.9171 66.2931 79.8147 66.1526 79.7492 65.9649C79.4357 65.0686 79.458 58.3507 79.6166 57.2662C79.6608 56.9658 79.7682 56.7032 79.9064 56.4347C80.1933 56.4236 80.5515 56.3857 80.8166 56.5151C81.91 57.0481 83.4545 61.1838 84.002 62.4162Z" fill="#C3C3C3"/>
<path d="M73.031 56.49C73.7984 56.4197 74.6304 56.3485 75.3764 56.5727C76.2359 56.8307 76.9308 57.3858 77.3173 58.198C78.0158 59.6671 77.9837 62.925 77.3745 64.4287C76.9419 65.4965 76.3592 65.9874 75.3025 66.4094C74.4774 66.5943 73.5854 66.6027 72.7826 66.3064C71.9352 65.9934 71.2934 65.3583 70.9483 64.5322C70.3321 63.0567 70.373 59.7974 71.0134 58.3233C71.4562 57.3036 72.0352 56.9111 73.031 56.49ZM73.3096 58.1767C72.7626 58.559 72.6589 59.025 72.5575 59.6638C72.3506 60.9697 72.151 63.2033 73.0017 64.2863C73.2742 64.633 73.6514 64.7999 74.0868 64.8276C74.3956 64.847 74.7146 64.7814 75.0179 64.7282C76.0211 63.7441 75.9262 62.2903 75.9299 60.9664C75.9327 60.096 75.8815 59.1216 75.2062 58.4786C74.8169 58.1079 74.3756 58.0945 73.8723 58.1268C73.6844 58.1398 73.4969 58.1564 73.3096 58.1767Z" fill="#C3C3C3"/>
<path d="M89.7651 70.9882C90.4823 70.8837 91.3241 70.978 91.9836 71.2845C92.7943 71.6613 93.371 72.399 93.6533 73.2301C94.1812 74.7847 94.1709 77.879 93.4114 79.3342C92.8729 80.3655 92.1641 80.7621 91.073 81.0792C90.1279 81.1628 89.1749 81.1032 88.3494 80.5901C87.5601 80.1001 87.1099 79.3471 86.9095 78.4577C86.5402 76.8195 86.5351 73.7335 87.5039 72.3005C88.1034 71.413 88.7545 71.1847 89.7651 70.9882ZM89.8861 72.6269C89.2549 72.9694 88.9884 73.2283 88.7964 73.9235C88.4392 75.2173 88.3085 77.6127 89.067 78.7693C89.3117 79.1423 89.6828 79.354 90.1242 79.416C90.3674 79.4502 90.6181 79.452 90.8637 79.4562C91.4599 79.1224 91.7125 78.8257 91.8966 78.1628C92.2566 76.8657 92.3306 74.5827 91.6501 73.4012C91.4269 73.0138 91.1144 72.7679 90.6725 72.6671C90.4172 72.6089 90.146 72.62 89.8861 72.6269Z" fill="#C3C3C3"/>
<path d="M54.8321 56.5167C55.6419 56.3923 56.593 56.3304 57.3785 56.5929C57.4839 56.6272 57.5872 56.6666 57.6883 56.7113C57.7893 56.7563 57.8878 56.8063 57.9836 56.8615C58.0794 56.9167 58.1721 56.9766 58.2617 57.0413C58.3513 57.106 58.4372 57.1752 58.5194 57.2489C58.6015 57.3225 58.6797 57.4004 58.7538 57.4823C58.8279 57.564 58.8975 57.6493 58.9626 57.7384C59.0277 57.8275 59.0879 57.9196 59.1431 58.0148C59.1986 58.1104 59.2488 58.2084 59.2937 58.3088C60.0044 59.856 59.9746 62.7492 59.371 64.3366C58.9682 65.3956 58.4301 65.8953 57.405 66.3474C56.632 66.5503 55.8963 66.6132 55.1089 66.4306C55.0013 66.4062 54.8952 66.3765 54.7907 66.3414C54.6863 66.3059 54.5839 66.2653 54.4838 66.2193C54.3836 66.1731 54.2863 66.122 54.1917 66.0659C54.0968 66.0095 54.0054 65.9483 53.9173 65.8824C53.8289 65.8164 53.7444 65.7462 53.6638 65.6716C53.5829 65.597 53.5063 65.5183 53.4341 65.4354C53.3615 65.3528 53.2936 65.2665 53.2304 65.1765C53.1671 65.0865 53.1088 64.9936 53.0555 64.8978C52.2332 63.4112 52.2872 60.1967 52.8392 58.6051C53.2271 57.4883 53.7792 57.0145 54.8321 56.5167ZM55.4186 58.1443C54.8503 58.5298 54.6638 58.8284 54.5266 59.4959C54.2568 60.8082 54.0885 63.0686 54.8684 64.2076C55.1233 64.5802 55.4707 64.7591 55.9111 64.8164C56.1781 64.8506 56.4511 64.8344 56.719 64.8192C57.1357 64.638 57.3552 64.4512 57.5269 64.0204C57.9836 62.874 58.0306 60.0173 57.4613 58.9273C57.2962 58.6121 57.032 58.2908 56.6744 58.1845C56.2674 58.0638 55.8353 58.1147 55.4186 58.1443Z" fill="#C3C3C3"/>
</svg>
