<svg width="151" height="112" viewBox="0 0 151 112" fill="none" xmlns="http://www.w3.org/2000/svg">
<g clip-path="url(#clip0_111_2505)">
<path d="M9.47461 96.7568V80.6561H11.7164V87.8122H12.5498L15.4265 80.6561H17.6694L14.4938 88.3089L18.0654 96.7568H15.823L12.5689 88.9045H11.7158V96.7568H9.47404H9.47461ZM90.8907 43.1484L87.756 30.8657L85.9108 27.3686V27.1853L84.3264 22.0165L81.8382 20.1408V17.6619L76.1333 11.8583L72.332 9.97555L64.2312 7.14167L57.2121 8.18652L50.8897 9.50025L48.2306 8.21312L48.2497 8.18652L43.9058 5.15662L39.6566 4.27945L33.5846 6.23674L30.0817 4.217L26.6163 4.14935L23.9884 2.51644L22.4491 2.06369L20.9109 1.52016H19.7357L19.5528 0.522138L18.6033 0H17.4772L16.4978 0.789278L16.1128 1.88212V3.42425L9.0071 9.1377L8.05532 10.9065L1.67285 15.8046L-0.000976562 16.5754L0.903467 18.2985L1.67285 19.7499V20.5658L3.60699 20.2911L3.02172 21.5123C2.91033 21.7459 3.08002 22.0165 3.3386 22.0165H5.34084L9.00652 23.3765L17.1523 24.4642H21.6347L26.7941 27.2772L27.5179 37.524L31.4768 53.2112L31.6828 56.6592L31.9991 59.7458L30.0956 61.1289L25.8019 62.1552L24.7145 62.9723L24.5327 64.0148L25.4827 64.4236H31.224L37.6584 64.4612L39.9215 63.8269V63.1908L41.1884 52.5786L42.7272 50.4028L44.266 55.4825L45.0815 62.0101L44.4299 62.3813L43.0891 62.3744L41.189 62.7814L40.7359 64.4612H53.1401V63.1018L55.6757 57.1148L56.3983 52.5786L55.1805 44.0371L58.0121 45.9551V52.1236L58.7365 55.6594L59.4597 60.8288L55.7496 63.2775L55.7651 64.1507L56.5126 64.4612H67.2718L67.3526 63.0989L68.1676 62.0101L67.9114 60.7322L70.6859 52.304L71.9534 47.6793L73.581 45.3208L77.8371 50.2195L80.027 54.3758L82.2901 56.6598L83.0127 58.2025L82.1539 60.2274L81.8335 62.0945L82.9002 61.6464L80.0518 62.3755L77.7644 63.5487L77.9255 64.2813L78.909 64.4242H89.9545L90.8907 60.834L90.4364 58.5667L90.8907 53.9398V47.91C90.8907 47.91 90.8809 47.9043 90.8641 47.8962L90.8907 47.91L90.074 44.6888L90.8907 43.1484ZM106.786 81.797H105.156V80.6561H106.786V81.797ZM100.36 63.1521L102.702 62.4478L103.991 60.5119L106.509 50.2438L104.577 47.5458L102.645 47.2514L99.8918 47.6042L95.7915 46.7241L94.2101 43.907C94.2101 43.907 94.5027 42.7916 94.8542 42.7338C95.2063 42.6748 97.7245 40.4452 97.7245 40.4452L98.3098 38.685L101.882 35.2816C101.882 35.2816 101.297 32.4651 102.468 32.1123C103.639 31.7608 104.577 34.1078 104.577 34.1078L105.103 35.281L106.509 35.75C106.509 35.75 105.982 31.2317 108.207 32.3465C108.207 32.3465 108.793 33.0508 108.911 34.1656C109.027 35.281 109.965 36.63 109.965 36.63L110.902 36.8654L112.719 37.7448L116.467 36.5722L122.441 37.6286L128.298 36.6306L131.579 36.1617L135.854 37.805L140.012 41.0905L142.648 45.0224L141.066 52.8857L143.643 58.4008L144.699 61.3347L142.399 64.386H138.064L137.362 63.5644L140.363 61.2168L137.728 57.9313L136.849 61.3925V63.0353L135.971 63.7401L133.921 64.3854H129.996L129.235 63.27L133.101 61.3341L131.754 56.8159L118.565 55.1731L118.927 58.3418L118.565 60.6888L117.228 64.3854H110.902L111.429 62.9775L113.069 61.7453L112.308 56.288L105.982 64.3854H100.418L100.359 63.1532L100.36 63.1521ZM123.11 109.395V108.608H121.604C120.673 108.608 120.373 108.974 120.373 109.467C120.373 110.025 120.82 110.372 121.586 110.372C122.316 110.372 122.854 110.025 123.11 109.395ZM123.758 107.859V110.838H123.137V110.09C122.845 110.583 122.28 110.885 121.485 110.885C120.399 110.885 119.733 110.318 119.733 109.486C119.733 108.745 120.208 108.124 121.586 108.124H123.11V107.831C123.11 107.008 122.645 106.561 121.75 106.561C121.13 106.561 120.546 106.78 120.153 107.127L119.861 106.643C120.344 106.232 121.056 105.994 121.814 105.994C123.055 105.994 123.757 106.616 123.757 107.859L123.758 107.859ZM114.002 106.03H114.65V108.16H117.67V106.03H118.318V110.839H117.67V108.719H114.65V110.839H114.002V106.03ZM111.628 109.395V108.608H110.123C109.191 108.608 108.891 108.974 108.891 109.467C108.891 110.025 109.338 110.372 110.104 110.372C110.834 110.372 111.373 110.025 111.628 109.395ZM112.276 107.859V110.838H111.656V110.09C111.363 110.583 110.798 110.885 110.003 110.885C108.918 110.885 108.252 110.318 108.252 109.486C108.252 108.745 108.726 108.124 110.104 108.124H111.628V107.831C111.628 107.008 111.163 106.561 110.268 106.561C109.648 106.561 109.064 106.78 108.672 107.127L108.38 106.643C108.863 106.232 109.575 105.994 110.332 105.994C111.573 105.994 112.276 106.616 112.276 107.859L112.276 107.859ZM103.36 108.151H106.763C106.681 107.21 105.996 106.551 105.057 106.551C104.125 106.551 103.441 107.21 103.36 108.151H103.36ZM107.375 108.636H103.36C103.432 109.642 104.199 110.309 105.249 110.309C105.833 110.309 106.353 110.099 106.718 109.678L107.083 110.099C106.654 110.61 105.989 110.885 105.231 110.885C103.734 110.885 102.712 109.86 102.712 108.435C102.712 107.008 103.707 105.993 105.058 105.993C106.408 105.993 107.384 106.99 107.384 108.435C107.384 108.489 107.375 108.562 107.375 108.636ZM99.7908 108.699H98.6959V110.838H98.0477V106.03H98.6959V108.142H99.8006L101.488 106.03H102.191L100.302 108.362L102.328 110.838H101.561L99.7902 108.699H99.7908ZM96.0034 108.435C96.0034 107.309 95.2461 106.561 94.2233 106.561C93.2011 106.561 92.4346 107.309 92.4346 108.435C92.4346 109.559 93.2011 110.309 94.2233 110.309C95.2461 110.309 96.0034 109.559 96.0034 108.435ZM91.7784 108.435C91.7784 107.009 92.8185 105.993 94.2239 105.993C95.6293 105.993 96.6602 107.009 96.6602 108.435C96.6602 109.861 95.6293 110.885 94.2239 110.885C92.8185 110.885 91.7784 109.861 91.7784 108.435ZM87.8074 108.435C87.8074 107.309 87.0501 106.561 86.0274 106.561C85.0052 106.561 84.2392 107.309 84.2392 108.435C84.2392 109.559 85.0052 110.309 86.0274 110.309C87.0501 110.309 87.8074 109.559 87.8074 108.435ZM83.583 108.435C83.583 107.009 84.6231 105.993 86.0279 105.993C87.4334 105.993 88.4648 107.009 88.4648 108.435C88.4648 109.861 87.4334 110.885 86.0279 110.885C84.6231 110.885 83.583 109.861 83.583 108.435ZM78.3982 110.273H81.3914V106.606H79.0827L79.0279 107.677C78.9828 108.774 78.8824 109.907 78.3982 110.273V110.273ZM82.787 110.273V112.001H82.1764V110.84H77.8787V112.001H77.2675V110.273H77.541C78.2533 110.227 78.3716 108.937 78.4357 107.639L78.4992 106.03H82.0396V110.272H82.7876L82.787 110.273ZM69.4363 106.03H70.0844V109.852L73.2872 106.03H73.8621V110.84H73.2139V107.019L70.0198 110.84H69.4363V106.03ZM68.4955 106.606H65.7492V110.838H65.1011V106.03H68.496V106.606L68.4955 106.606ZM59.6432 104.156H60.1079C60.1171 104.64 60.4825 104.942 61.0025 104.942C61.5225 104.942 61.8879 104.64 61.9058 104.156H62.371C62.3531 104.925 61.8146 105.344 61.0025 105.344C60.1898 105.344 59.6611 104.925 59.6432 104.156ZM58.8219 106.03H59.4695V109.852L62.6729 106.03H63.2477V110.84H62.5995V107.018L59.4054 110.84H58.8219V106.03ZM56.448 109.395V108.609H54.9427C54.0122 108.609 53.711 108.975 53.711 109.468C53.711 110.025 54.1583 110.373 54.9242 110.373C55.6543 110.373 56.1928 110.025 56.448 109.395ZM57.0961 107.859V110.839H56.4757V110.09C56.183 110.583 55.618 110.885 54.8238 110.885C53.7375 110.885 53.072 110.319 53.072 109.486C53.072 108.746 53.5459 108.125 54.9242 108.125H56.448V107.832C56.448 107.009 55.9833 106.562 55.0887 106.562C54.4682 106.562 53.8841 106.781 53.4916 107.128L53.1996 106.644C53.6827 106.232 54.3943 105.995 55.1516 105.995C56.3931 105.995 57.0956 106.616 57.0956 107.86L57.0961 107.859ZM52.5601 106.607H50.7437V110.839H50.0961V106.607H48.2797V106.032H52.5595V106.607H52.5601ZM45.8521 106.607H44.0357V110.839H43.3875V106.607H41.5711V106.032H45.8515V106.607H45.8521ZM40.613 108.436C40.613 107.311 39.8557 106.562 38.833 106.562C37.8108 106.562 37.0448 107.311 37.0448 108.436C37.0448 109.56 37.8108 110.31 38.833 110.31C39.8557 110.31 40.613 109.56 40.613 108.436ZM36.3886 108.436C36.3886 107.01 37.4287 105.995 38.8335 105.995C40.2395 105.995 41.2704 107.01 41.2704 108.436C41.2704 109.862 40.2395 110.886 38.8335 110.886C37.4287 110.886 36.3886 109.862 36.3886 108.436ZM140.326 96.758L140.625 80.6573H142.826L145.663 93.7165L148.521 80.6573H150.703L151.001 96.758H149.195L149.016 85.0697L146.298 96.758H145.029L142.33 85.0697L142.152 96.758H140.326ZM133.779 95.1673C134.374 95.1673 134.824 95.0453 135.129 94.7995C135.432 94.5538 135.637 94.2097 135.743 93.7657C135.85 93.3216 135.902 92.8012 135.902 92.205V85.1484C135.902 84.5522 135.85 84.0382 135.743 83.608C135.637 83.1778 135.432 82.8459 135.129 82.614C134.823 82.3821 134.374 82.2659 133.779 82.2659C133.184 82.2659 132.731 82.3821 132.42 82.614C132.109 82.8459 131.901 83.1772 131.795 83.608C131.689 84.0382 131.636 84.5522 131.636 85.1484V92.205C131.636 92.8012 131.689 93.3216 131.795 93.7657C131.901 94.2092 132.11 94.5538 132.42 94.7995C132.731 95.0453 133.184 95.1673 133.779 95.1673ZM133.779 96.9366C132.694 96.9366 131.828 96.7244 131.18 96.3C130.532 95.8768 130.069 95.2702 129.791 94.4815C129.512 93.6934 129.375 92.7694 129.375 91.7089V85.6069C129.375 84.5464 129.516 83.6357 129.801 82.8742C130.085 82.1121 130.548 81.5292 131.189 81.1245C131.831 80.7203 132.694 80.5185 133.779 80.5185C134.864 80.5185 135.723 80.7244 136.358 81.1349C136.994 81.5443 137.454 82.1283 137.738 82.884C138.023 83.6392 138.164 84.547 138.164 85.6069V91.7286C138.164 92.7757 138.022 93.6905 137.738 94.4717C137.453 95.254 136.994 95.86 136.358 96.2908C135.724 96.721 134.864 96.9366 133.779 96.9366ZM119.018 95.1476H124.215V82.3266H121.616L121.458 85.9642C121.405 87.3959 121.322 88.5981 121.209 89.5712C121.096 90.5461 120.964 91.3475 120.813 91.9772C120.661 92.6063 120.488 93.1169 120.297 93.5072C120.105 93.8981 119.9 94.2132 119.682 94.452C119.463 94.6908 119.242 94.9221 119.018 95.1476ZM116.201 99.6797V95.1476H116.935C117.159 94.9614 117.38 94.7371 117.599 94.4722C117.817 94.2068 118.022 93.8593 118.213 93.428C118.406 92.9978 118.582 92.4409 118.74 91.7581C118.899 91.0763 119.04 90.2177 119.166 89.1838C119.291 88.1499 119.387 86.8975 119.454 85.4271L119.712 80.6567H126.438V95.147H127.986V99.6792H126.259L126.081 96.7574H118.105L117.926 99.6792H116.2L116.201 99.6797ZM101.875 96.758V80.6573H103.859V91.8078L108.562 80.6573H110.168V96.758H108.205V85.4282L103.543 96.758H101.875ZM91.0615 96.758V80.6573H93.0453V91.8078L97.7476 80.6573H99.355V96.758H97.3915V85.4282L92.7284 96.758H91.0615ZM80.9822 96.758V80.6573H83.224V87.8134H84.0574L86.9347 80.6573H89.1765L86.0014 88.3101L89.573 96.758H87.3312L84.0765 88.9057H83.2234V96.758H80.9816H80.9822ZM74.7919 96.9366C73.6543 96.9366 72.7706 96.6973 72.1432 96.2208C71.5147 95.7443 71.0778 95.1008 70.8336 94.293C70.5883 93.4846 70.4665 92.5838 70.4665 91.5904V85.9053C70.4665 84.8194 70.5883 83.8716 70.8336 83.0639C71.0783 82.2549 71.5147 81.6293 72.1432 81.1852C72.7706 80.7405 73.6543 80.5191 74.7919 80.5191C75.7968 80.5191 76.5939 80.7053 77.1826 81.0753C77.7713 81.4466 78.195 81.9768 78.4518 82.666C78.7098 83.3547 78.8386 84.1827 78.8386 85.1501V86.4222H76.7157V85.2889C76.7157 84.6927 76.6862 84.1654 76.6262 83.7086C76.5668 83.2524 76.4046 82.8973 76.1402 82.6452C75.8753 82.3931 75.4332 82.2671 74.8116 82.2671C74.1767 82.2671 73.7132 82.4029 73.4223 82.6736C73.1314 82.9459 72.9438 83.3304 72.8578 83.8271C72.7706 84.3232 72.7279 84.9038 72.7279 85.5664V91.9466C72.7279 92.7555 72.7943 93.395 72.9271 93.8651C73.0592 94.3352 73.2774 94.67 73.5816 94.8689C73.8858 95.0684 74.2961 95.1679 74.8116 95.1679C75.4193 95.1679 75.8563 95.0314 76.1206 94.7602C76.3855 94.4884 76.55 94.1143 76.6164 93.6367C76.6828 93.1603 76.7157 92.6034 76.7157 91.9668V90.7751H78.8386V91.9668C78.8386 92.9486 78.7197 93.8125 78.4813 94.5619C78.2429 95.3101 77.8325 95.8924 77.2513 96.3104C76.6689 96.7279 75.8493 96.9366 74.7914 96.9366H74.7919ZM64.3357 96.758V82.3266H61.6172V80.6573H69.2164V82.3266H66.5775V96.758H64.3357ZM55.6255 91.0925H58.3036L56.9541 83.8375L55.6255 91.0925ZM52.451 96.758L55.8633 80.6573H58.0254L61.4579 96.758H59.335L58.6014 92.7023H55.3271L54.5531 96.758H52.4504H52.451ZM48.5625 96.758V89.3237C47.6898 89.5221 46.902 89.6215 46.2013 89.6215C45.2882 89.6215 44.5309 89.4862 43.9295 89.215C43.3269 88.9433 42.8773 88.5293 42.5806 87.973C42.2816 87.4167 42.1339 86.7206 42.1339 85.8856V80.6584H44.3964V85.8856C44.3964 86.3892 44.4686 86.8096 44.614 87.1479C44.7595 87.4861 44.9978 87.7371 45.3286 87.903C45.6593 88.069 46.0956 88.1517 46.6382 88.1517C46.9158 88.1517 47.2159 88.132 47.5409 88.0921C47.8647 88.0528 48.2052 87.9927 48.5631 87.9134V80.6584H50.8245V96.7591H48.5631L48.5625 96.758ZM29.2771 96.758L29.575 80.6573H31.7769L34.6149 93.7165L37.4714 80.6573H39.6537L39.9515 96.758H38.1461L37.9672 85.0697L35.2492 96.758H33.9794L31.2811 85.0697L31.1022 96.758H29.2771ZM21.8569 91.0925H24.5356L23.1861 83.8375L21.8569 91.0925ZM18.6818 96.758L22.0947 80.6573H24.2574L27.6893 96.758H25.5664L24.8323 92.7023H21.5585L20.7845 96.758H18.6812H18.6818Z" fill="white"/>
</g>
<defs>
<clipPath id="clip0_111_2505">
<rect width="151" height="112" fill="white"/>
</clipPath>
</defs>
</svg>
